<svg id="레이어_1" data-name="레이어 1" xmlns="http://www.w3.org/2000/svg" viewBox="0 0 196.87 133.05"><defs><style>.cls-1{fill:#e2bdb6;}.cls-2{fill:#312b4e;}.cls-3{fill:#ea999a;}.cls-4{fill:#fff;}.cls-5{fill:#eb733a;}.cls-6{fill:#d3d5ca;}</style></defs><path class="cls-1" d="M2.76,131.11c-.9-1.06.56-1.66.8-3s0-1.4.29-2.77.4-1.34.65-2.71,0-1.41.26-2.78.14-1.39.38-2.75.77-1.28,1-2.65-.13-1.43.11-2.8.18-1.38.42-2.75.39-1.35.64-2.72.35-1.35.59-2.72.65-1.3.89-2.67-.26-1.46,0-2.84.69-1.29.93-2.66.14-1.39.38-2.76.52-1.32.76-2.69.1-1.39.35-2.76.2-1.38.44-2.75-.13-1.44.11-2.81-.05-1.42.19-2.79.14-1.39.38-2.76.37-1.35.62-2.72.94-1.25,1.18-2.62-.46-1.5-.21-2.87.83-1.27,1.07-2.64-.31-1.47-.07-2.84.46-1.33.71-2.7.62-1.3.87-2.67-.44-1.5-.2-2.87.83-1.27,1.07-2.64.47-1.33.72-2.7.22-1.38.46-2.75-.08-1.43.16-2.8.63-1.3.87-2.68-.56-1.51-.32-2.88.26-1.37.5-2.75.42-1.34.66-2.71.64-1.3.88-2.67,0-1.42.22-2.79.63-1.31.88-2.68.13-1.39.38-2.76-.33-1.48-.09-2.85.23-1.37.47-2.75.79-1.28,1-2.65.21-1.38.46-2.75l.48-2.74c.24-1.38-.26-1.47,0-2.84s.11-1.39.35-2.77.79-1.27,1-2.65.34-1.35.59-2.72-.08-1.43.17-2.8.38-1.35.63-2.72-.05-1.42.19-2.79.26-1.37.5-2.75.73-1.28,1-2.66.21-1.37.46-2.74.34-1.36.59-2.73-.14-1.44.1-2.82-.08-1.43.16-2.8.69-1.3.93-2.67.11-1.4.35-2.77.43-1.34.68-2.72-.33-1.47-.08-2.85.33-1.36.57-2.73.66-1.3.9-2.68.11-1.39.35-2.77.31-1.36.56-2.74.55-1.32.79-2.7-.76-1.8.3-2.71,1.29-.19,2.66-.19,1.37.27,2.74.27,1.37-.62,2.74-.62,1.37.43,2.74.43,1.36.16,2.73.16,1.37-.48,2.74-.48,1.37.1,2.74.1,1.37-.06,2.74-.06,1.37.41,2.74.41,1.37-.59,2.74-.59,1.37.34,2.74.34,1.37.38,2.74.38,1.37-.68,2.74-.68,1.37.51,2.74.51,1.37-.56,2.74-.56,1.37.75,2.74.75S81.33-56,82.7-56s1.37.18,2.74.18S86.81-56,88.17-56s1.37.48,2.74.48,1.37-.65,2.74-.65S95-56,96.39-56s1.37.48,2.74.48,1.37.16,2.74.16,1.37-.8,2.74-.8,1.37-.07,2.74-.07,1.37.39,2.74.39,1.37.17,2.74.17,1.37-.47,2.74-.47,1.37-.12,2.75-.12,1.37.66,2.74.66,1.37-.18,2.74-.18,1.37-.4,2.74-.4,1.37.65,2.75.65,1.37-.31,2.74-.31,1.37-.22,2.75-.22,1.37.09,2.74.09,1.52-.52,2.52.42,0,1.14.12,2.51,0,1.38.14,2.75.28,1.35.38,2.72.06,1.37.16,2.74.51,1.34.61,2.71.37,1.35.47,2.72-.28,1.39-.18,2.76-.21,1.4-.11,2.77.34,1.35.44,2.72-.24,1.39-.13,2.77.77,1.32.87,2.69.07,1.37.17,2.75-.31,1.4-.21,2.77-.15,1.39-.05,2.76.65,1.33.75,2.7-.41,1.4-.3,2.77.15,1.37.25,2.74-.1,1.38,0,2.75.3,1.36.41,2.73.17,1.37.27,2.74.73,1.32.83,2.7-.52,1.41-.42,2.79-.1,1.38,0,2.75.47,1.35.57,2.72.31,1.35.41,2.72.33,1.36.44,2.73-.47,1.41-.36,2.78.13,1.37.23,2.74.51,1.35.61,2.72-.68,1.43-.58,2.8,1,1.3,1.12,2.67-.28,1.4-.18,2.78-.08,1.38,0,2.75.44,1.35.54,2.72-.34,1.41-.24,2.78.72,1.33.83,2.7-.58,1.42-.48,2.79.49,1.34.59,2.72-.06,1.38,0,2.76.18,1.36.28,2.73-.32,1.41-.22,2.78.66,1.33.76,2.7-.07,1.39,0,2.76.12,1.37.22,2.75.43,1.34.53,2.72-.51,1.41-.41,2.79.28,1.36.38,2.73.36,1.35.46,2.73-.32,1.4-.22,2.77.5,1.34.61,2.71-.2,1.4-.1,2.77-.15,1.39,0,2.76.51,1.34.61,2.72,0,1.38.09,2.75.27,1.36.37,2.73.13,1.37.23,2.75-.46,1.41-.36,2.78.15,1.38.25,2.75.58,1.34.68,2.71.17,1.37.27,2.74-.34,1.41-.24,2.79.17,1.37.27,2.74,0,1.38.1,2.75.91,1.32,1,2.69-.76,1.44-.66,2.82.44,1.35.54,2.72.43,1.36.53,2.73,1,1.91.1,2.92-1.54.33-2.94.33-1.39-.68-2.79-.68-1.39.33-2.79.33-1.39.2-2.78.2-1.4-.82-2.8-.82-1.39.34-2.79.34h-2.79c-1.4,0-1.4.45-2.79.45s-1.4-.49-2.8-.49-1.39.65-2.79.65-1.39-.5-2.79-.5-1.39.2-2.79.2-1.39-.62-2.79-.62-1.4.4-2.79.4-1.4-.12-2.8-.12-1.39.66-2.79.66-1.39-.79-2.79-.79-1.4.42-2.79.42-1.4-.5-2.79-.5-1.4.84-2.8.84-1.4,0-2.79,0S94,131,92.56,131s-1.39-.44-2.79-.44-1.39.1-2.79.1-1.4.25-2.8.25-1.39-.35-2.79-.35-1.4-.23-2.79-.23-1.4.38-2.8.38-1.4-.28-2.79-.28-1.4.36-2.8.36-1.39,0-2.79,0-1.4-.32-2.8-.32-1.39-.05-2.79-.05-1.4.82-2.8.82-1.39,0-2.79,0-1.4,0-2.8,0-1.39-.51-2.79-.51-1.39-.22-2.79-.22-1.4.22-2.79.22-1.4.09-2.8.09-1.4.06-2.79.06-1.4.13-2.8.13-1.4-.66-2.79-.66-1.4.83-2.8.83-1.4-.36-2.8-.36-1.39-.08-2.79-.08-1.4.17-2.8.17-1.4-.26-2.8-.26-1.4.18-2.79.18-1.4.41-2.8.41-1.4-.39-2.8-.39-1.4-.1-2.8-.1-1.5-.48-2.86-.11C4.21,131.07,3.67,132.18,2.76,131.11Z"/><path class="cls-2" d="M140-56c.88-1,1.59-.13,2.92-.13s1.32,0,2.65,0,1.32.83,2.65.83,1.32-.21,2.65-.21,1.33.18,2.65.18,1.33,0,2.66,0,1.32-.16,2.65-.16,1.33-.29,2.66-.29,1.43-.52,2.42.36.3,1.13.52,2.5.27,1.36.49,2.73.47,1.32.69,2.69,0,1.41.19,2.78.73,1.29.95,2.65-.11,1.43.11,2.79.11,1.39.33,2.76,0,1.41.16,2.78.48,1.33.7,2.7-.25,1.45,0,2.82.72,1.29.94,2.66.12,1.39.34,2.76-.09,1.42.13,2.79.56,1.32.77,2.69-.08,1.42.13,2.79.43,1.33.65,2.7,0,1.4.26,2.77.1,1.39.32,2.76.93,1.25,1.15,2.62-.07,1.42.15,2.79.19,1.38.41,2.75.64,1.31.86,2.68-.3,1.45-.08,2.82.08,1.4.29,2.77.14,1.38.36,2.75.7,1.29.92,2.67-.15,1.42.07,2.8,0,1.4.25,2.77.95,1.26,1.17,2.63,0,1.41.18,2.78.44,1.34.66,2.71.36,1.35.58,2.72.17,1.38.39,2.75.28,1.36.49,2.74-.52,1.49-.31,2.86.5,1.33.72,2.7.28,1.36.5,2.73-.19,1.44,0,2.81.44,1.34.66,2.71.35,1.35.57,2.72.43,1.34.65,2.72-.33,1.45-.11,2.83.95,1.25,1.17,2.63-.52,1.49-.3,2.86.15,1.38.37,2.75.64,1.31.86,2.68-.14,1.43.08,2.8.07,1.4.28,2.77,1,1.24,1.26,2.62.18,1.37.4,2.75.05,1.4.26,2.77.34,1.35.56,2.72.23,1.37.45,2.74.09,1.4.31,2.77-.12,1.43.1,2.8.42,1.34.64,2.71.5,1.33.72,2.7.36,1.35.58,2.73-.19,1.44,0,2.81.41,1.34.63,2.72.06,1.4.28,2.77.43,1.34.65,2.72.33,1.35.55,2.73-.31,1.45-.1,2.83.6,1.31.82,2.69.28,1.36.5,2.74.07,1.4.28,2.78,1.24,1.75.32,2.8-1.45-.39-2.87-.39-1.42.51-2.84.51-1.42-.45-2.84-.45-1.42.11-2.84.11-1.42-.28-2.84-.28-1.42.14-2.84.14-1.42,0-2.84,0-1.42.38-2.84.38-1.42.3-2.84.3-1.43.11-2.85.11-1.42-.14-2.84-.14-1.42-.7-2.84-.7-1.43.71-2.85.71-1.63.41-2.69-.54-.58-1.17-.68-2.54.11-1.39,0-2.75.29-1.4.19-2.77-.78-1.32-.89-2.69.49-1.41.39-2.78.14-1.39,0-2.75-.12-1.37-.22-2.74-.43-1.35-.53-2.72.29-1.39.19-2.76-.92-1.32-1-2.69-.09-1.37-.19-2.74.08-1.39,0-2.76.3-1.4.2-2.77-.38-1.35-.48-2.72.3-1.4.2-2.77-.21-1.36-.31-2.73-.68-1.33-.78-2.7-.11-1.37-.21-2.74.44-1.41.34-2.78-.13-1.37-.23-2.74l-.2-2.74c-.1-1.38-.61-1.34-.71-2.71s-.23-1.36-.33-2.73.44-1.41.34-2.79,0-1.37-.1-2.74-.42-1.35-.52-2.72,0-1.38-.05-2.76-.39-1.35-.5-2.72-.08-1.37-.19-2.74.4-1.41.3-2.78-.13-1.37-.23-2.74,0-1.38-.1-2.75-.48-1.35-.59-2.72-.42-1.35-.52-2.72.34-1.41.24-2.78-.24-1.36-.34-2.73.09-1.39,0-2.76-.67-1.33-.77-2.7,0-1.38-.12-2.76.32-1.4.22-2.77-.24-1.36-.34-2.73,0-1.38-.13-2.76.21-1.39.11-2.76-.25-1.37-.35-2.74-.33-1.35-.43-2.73.17-1.39.07-2.76-.72-1.33-.82-2.7.33-1.41.23-2.78.06-1.38,0-2.75-.59-1.34-.69-2.71,0-1.38-.09-2.75-.17-1.37-.27-2.74.31-1.4.21-2.78-.68-1.33-.78-2.7.23-1.4.13-2.77.27-1.4.17-2.77-.77-1.33-.87-2.7.4-1.41.3-2.79-.65-1.33-.75-2.7.64-1.43.53-2.8-.57-1.34-.67-2.72.07-1.39,0-2.76-.31-1.36-.41-2.73.37-1.41.27-2.79-.75-1.32-.85-2.7.13-1.39,0-2.76.7-1.55.26-2.86C140.22-54.63,139.09-55,140-56Z"/><path class="cls-3" d="M102.48,130.82c-1,1-1.37,0-2.76,0s-1.38.27-2.76.27H94.19c-1.38,0-1.38-.66-2.76-.66s-1.39,0-2.77,0-1.38.38-2.77.38-1.38-.14-2.76-.14-1.39,0-2.77,0-1.39,0-2.77,0-1.39.41-2.77.41-1.38-.17-2.77-.17-1.38-.24-2.76-.24-1.39.67-2.77.67-1.39-.58-2.77-.58-1.39.58-2.78.58-1.62.34-2.57-.68,0-1.19,0-2.58.4-1.37.48-2.76-.68-1.43-.6-2.82.65-1.36.73-2.75.24-1.38.32-2.77-.74-1.43-.66-2.82.15-1.39.23-2.78.86-1.34.94-2.73l.16-2.79c.07-1.39-.4-1.42-.32-2.81s.33-1.38.41-2.77,0-1.4.07-2.79.18-1.38.26-2.77-.52-1.43-.44-2.82.57-1.36.65-2.75-.08-1.4,0-2.79.24-1.38.32-2.77,0-1.4.06-2.79.49-1.37.57-2.76-.18-1.41-.1-2.8-.05-1.4,0-2.79.14-1.39.22-2.78l.16-2.78c.08-1.4,0-1.4.06-2.79s-.13-1.41-.05-2.8-.15-1.4-.07-2.79.38-1.38.46-2.77-.08-1.4,0-2.8.74-1.35.82-2.74-.43-1.42-.35-2.82.41-1.37.48-2.76-.4-1.42-.32-2.81,0-1.4.07-2.79.19-1.39.27-2.78.6-1.37.68-2.76.09-1.39.17-2.78-.07-1.4,0-2.8,0-1.39.08-2.79-.37-1.42-.3-2.81.8-1.35.88-2.74.24-1.39.32-2.78.12-1.39.2-2.79,0-1.39.13-2.78-.78-1.44-.7-2.84.51-1.37.59-2.76.23-1.38.31-2.78-.4-1.42-.32-2.81.51-1.37.59-2.76.39-1.38.47-2.77,0-1.4,0-2.79-.44-1.43-.36-2.82,0-1.4,0-2.79.87-1.35,1-2.74,0-1.4,0-2.79-.05-1.4,0-2.8-.57-1.43-.5-2.82.52-1.37.6-2.77-.28-1.41-.2-2.8.14-1.39.22-2.79.89-1.35,1-2.74-.87-1.45-.79-2.85.48-1.37.56-2.76.5-1.37.58-2.77S68-46,68-47.4s.51-1.37.59-2.76l.16-2.8c.08-1.4-1.14-2.06-.13-3s1.6-.1,3-.1,1.37-.12,2.75-.12,1.37,0,2.74,0,1.38.17,2.75.17,1.38.13,2.76.13,1.37.08,2.75.08,1.37-.08,2.74-.08,1.38.07,2.76.07,1.37.22,2.75.22,1.37-.14,2.75-.14,1.38.46,2.76.46,1.69-1.31,2.66-.34-.26,1.3-.26,2.69.32,1.39.32,2.78.45,1.39.45,2.78-.15,1.39-.15,2.78-.58,1.39-.57,2.78.72,1.38.73,2.77-.71,1.39-.7,2.78.82,1.39.82,2.78-.2,1.39-.2,2.79-.11,1.39-.11,2.78.16,1.39.17,2.79-.6,1.39-.6,2.78.36,1.39.37,2.78-.46,1.39-.45,2.78.77,1.39.77,2.78-.79,1.39-.79,2.78.55,1.39.56,2.78-.38,1.4-.38,2.79.55,1.39.55,2.78.22,1.39.22,2.78,0,1.4,0,2.79-.62,1.39-.61,2.78.47,1.39.47,2.78-.68,1.4-.68,2.79.06,1.39.06,2.78.3,1.39.3,2.78-.39,1.4-.39,2.79,0,1.39,0,2.79.29,1.39.29,2.78-.15,1.39-.14,2.78.17,1.39.18,2.79.56,1.39.57,2.78-.67,1.39-.67,2.79-.13,1.39-.12,2.78.06,1.4.07,2.79-.06,1.39-.06,2.78.58,1.39.58,2.79-.5,1.39-.5,2.79.67,1.39.67,2.78l0,2.78c0,1.4-.5,1.4-.49,2.79s.42,1.39.42,2.79-.17,1.39-.16,2.78.32,1.4.33,2.79,0,1.39,0,2.79-.47,1.39-.47,2.78,0,1.4,0,2.79-.15,1.39-.14,2.79.42,1.39.43,2.78-.43,1.4-.43,2.79,0,1.39,0,2.78,0,1.39,0,2.79.14,1.39.14,2.78,0,1.4,0,2.79.06,1.39.06,2.79.54,1.39.54,2.78-.23,1.4-.23,2.79-.6,1.4-.59,2.79.19,1.39.2,2.79.19,1.39.19,2.79-.34,1.39-.34,2.79.31,1.39.32,2.78.14,1.4.14,2.79.25,1.4.26,2.79-.37,1.4-.37,2.8-.4,1.48-.11,2.84S103.46,129.82,102.48,130.82Z"/><path class="cls-4" d="M56.65,65.9c.12-1-.47-2-.4-2.92s.47-1.9.49-2.85.28-1.94.25-2.88-.73-1.89-.82-2.83.51-2,.37-2.94-1-1.79-1.2-2.7-.08-2-.35-2.87-.56-1.87-.9-2.74-.56-1.91-1-2.74a22.12,22.12,0,0,0-1.79-2.31A17.25,17.25,0,0,0,49.42,36a15,15,0,0,0-2-2.14A12.65,12.65,0,0,0,45,32.25a11.75,11.75,0,0,0-2.85-.81c-1-.12-2,.43-2.9.57a11.74,11.74,0,0,0-2.72.8,15.36,15.36,0,0,0-2.34,1.59c-.77.51-1.84.65-2.57,1.31a24.14,24.14,0,0,0-2.15,1.94c-.61.7-.91,1.69-1.48,2.49s-.83,1.69-1.33,2.53-.8,1.68-1.24,2.56-1,1.59-1.37,2.49-1.41,1.5-1.73,2.42S22,52.05,21.73,53s.15,2-.06,2.94-.48,1.82-.65,2.77-.55,1.83-.67,2.79-.27,1.9-.34,2.84.21,1.93.2,2.87-.63,1.92-.6,2.87.57,1.89.65,2.83-.07,1.94.07,2.87.05,2,.25,2.88.37,1.93.64,2.83.52,1.91.86,2.77a26.89,26.89,0,0,0,1.48,2.52,23.41,23.41,0,0,0,1.57,2.42A17.11,17.11,0,0,0,27,91.31a14.67,14.67,0,0,0,2,2,11.93,11.93,0,0,0,2.5,1.41,10.78,10.78,0,0,0,2.79.46,10,10,0,0,0,2.79,0c.93-.14,2,.23,2.94-.14a15.21,15.21,0,0,0,2.58-1.41,20,20,0,0,0,2-2.06,23.89,23.89,0,0,0,2.11-2c.61-.7,1.23-1.45,1.8-2.25s1.1-1.55,1.6-2.39.57-1.85,1-2.72,1-1.63,1.34-2.53.93-1.68,1.25-2.59,0-2,.22-2.93,1.05-1.68,1.27-2.63-.18-2,0-2.91S56.54,66.86,56.65,65.9Z"/><path class="cls-4" d="M108,65.79c-.11-1-.88-1.84-.95-2.78s.24-1.94.22-2.88.26-1.91.29-2.85-.54-2-.45-2.9.91-1.82,1.06-2.75-.34-2-.14-2.94.82-1.78,1.09-2.67.63-1.82,1-2.68a25.78,25.78,0,0,1,1.38-2.49,26.14,26.14,0,0,1,1.13-2.62,19,19,0,0,1,1.66-2.33,13.58,13.58,0,0,1,2.31-1.68A11.13,11.13,0,0,1,119.05,33a10,10,0,0,1,2.67-.64c1-.11,1.86-.62,2.81-.48a12.25,12.25,0,0,1,2.79.74A15.15,15.15,0,0,1,130,33.68c.78.51,1.22,1.54,1.95,2.2A24.86,24.86,0,0,1,133.85,38a27.76,27.76,0,0,1,2.06,2c.54.76,1.3,1.43,1.8,2.27s1,1.61,1.49,2.49.62,1.82,1,2.72,0,2,.31,2.94.88,1.69,1.14,2.62,1.14,1.68,1.36,2.63.32,1.89.48,2.85,0,1.93.16,2.89.15,1.92.22,2.86.43,1.92.45,2.87-.6,1.92-.64,2.86.38,2,.3,2.89-.49,1.89-.63,2.82-.6,1.84-.8,2.76-.53,1.83-.8,2.72-.67,1.78-1,2.64-.47,1.89-.89,2.71a24,24,0,0,1-1.35,2.52,18.81,18.81,0,0,1-1.64,2.35,14.57,14.57,0,0,1-2.22,1.83,11.75,11.75,0,0,1-2.48,1.4,10.46,10.46,0,0,1-2.72,1,11.05,11.05,0,0,1-2.93,0c-.93-.14-1.66-1-2.57-1.39A14.17,14.17,0,0,1,121.47,93,17.88,17.88,0,0,1,119,91.52a23.42,23.42,0,0,1-1.91-2.13c-.61-.7-1.17-1.45-1.74-2.25s-1-1.57-1.52-2.42-1.3-1.44-1.73-2.32-.66-1.79-1-2.69-.47-1.84-.79-2.76-1.24-1.6-1.5-2.54.06-2-.15-2.93-1-1.76-1.14-2.71S108.11,66.75,108,65.79Z"/><path class="cls-5" d="M89.45,29.37c-1-.93-1.12-.5-2.47-.5s-1.35.05-2.71.05-1.35-.1-2.7-.1-1.36.18-2.71.18-2-1.14-3-.21,0,1.73-.11,3.14.3,1.46.15,2.86-.75,1.35-.91,2.76l-.3,2.82c-.16,1.41-.32,1.39-.47,2.81S74,44.58,73.88,46s.34,1.47.19,2.88-.22,1.4-.38,2.82,0,1.43-.13,2.84.19,1.44,0,2.85-.77,1.35-.92,2.76.2,1.45,0,2.86-.42,1.39-.58,2.8-.25,1.4-.4,2.82-1.17,1.82-.23,2.88,1.47.22,2.89.22,1.42.09,2.83.09,1.42-.38,2.83-.38,1.42-.06,2.84-.06,1.42.26,2.83.26,1.42-.56,2.84-.56,1.42.6,2.84.6,1.62.6,2.57-.45.26-1.19.11-2.6-.65-1.35-.8-2.76.07-1.44-.08-2.85.34-1.46.19-2.87-.22-1.4-.37-2.82,0-1.42-.15-2.83-.54-1.37-.69-2.78-.16-1.41-.31-2.83-.33-1.39-.48-2.8-.47-1.38-.62-2.79.26-1.45.11-2.86.27-1.46.12-2.87-.12-1.42-.27-2.83-.48-1.35-.42-2.77S90.48,30.34,89.45,29.37Z"/><path class="cls-6" d="M93.55,10.11c-1.06,1-1.66-.57-3.08-.57s-1.42.16-2.84.16-1.42.51-2.85.51-1.42-.14-2.84-.14-1.43,0-2.85,0-2,1-3.09.06.34-1.63.25-3,.18-1.36.08-2.71-.71-1.3-.8-2.65S75.17.46,75.08-.89s.7-1.4.61-2.75S75.07-4.95,75-6.29s.38-1.38.29-2.73-.7-1.3-.79-2.65S75-13,74.87-14.4,74.09-15.7,74-17s.25-1.37.16-2.72.39-1.38.3-2.73,0-1.35-.14-2.7-.9-1.29-1-2.64-.7-1.65.25-2.62,1.31-.23,2.72-.23,1.41.13,2.83.13,1.41-.09,2.82-.09,1.42-.14,2.83-.14,1.41.33,2.83.33,1.41.28,2.82.28,1.42-.07,2.84-.07,1.53-1,2.52,0,.47,1.06.37,2.41,0,1.35-.09,2.69-.23,1.34-.33,2.68-.79,1.3-.88,2.65.56,1.39.46,2.73,0,1.36,0,2.7-.73,1.31-.82,2.65S95-10.34,95-9s-.68,1.31-.77,2.65S94.13-5,94-3.66,93.85-2.31,93.76-1s.08,1.36,0,2.71-.43,1.32-.52,2.67a7.49,7.49,0,0,0,.16,2.75C93.68,8.72,94.56,9.21,93.55,10.11Z"/><path class="cls-5" d="M70.45,107.8c-1.46,1.16-2.45,1.68-3.91.52-1.16-.93-.09-1.86-.09-3.34s.52-1.49.52-3-.55-1.48-.55-3,.4-1.48.4-3-1.16-2.06,0-3c1.45-1.16,2.5-1.43,4-.27,1.16.93.13,1.77.13,3.26s-.67,1.48-.67,3,.16,1.49.16,3a9.25,9.25,0,0,0,.51,2.89C71.24,106.4,71.61,106.87,70.45,107.8Z"/><path class="cls-5" d="M86.35,101.59c-1.46,1.16-2.08,1.65-3.53.49-1.16-.93-.33-1.61-.33-3.1s.8-1.48.8-3-.53-1.48-.53-3,.48-1.48.48-3-1.66-2.26-.5-3.19c1.45-1.16,2.26-.71,3.71.45,1.16.93.58,1.25.58,2.73s-.35,1.49-.35,3-.49,1.48-.49,3-.3,1.6,0,3.06S87.51,100.66,86.35,101.59Z"/><path class="cls-5" d="M95.16,112.5c-1.46,1.16-2.76,1.27-4.22.11-1.16-.92.24-1.85.24-3.33s-.34-1.48-.34-3,.18-1.48.18-3-.13-1.49-.13-3-1-2.31.14-3.23c1.45-1.16,2.25-.63,3.71.53,1.16.92.47,1.21.47,2.69s-.25,1.48-.25,3-.49,1.48-.49,3a8.19,8.19,0,0,0,.46,3C95.37,111,96.32,111.57,95.16,112.5Z"/><path class="cls-5" d="M78.25,122.42c-1.45,1.16-2,1.49-3.4.33-1.16-.92-.22-1.45-.22-2.93s.2-1.48.2-3,.41-1.48.41-3,0-1.49,0-3-1.68-2.19-.52-3.12c1.46-1.16,2.34-1,3.8.21,1.16.92.36,1.43.36,2.91s.15,1.48.15,3-.41,1.49-.41,3a10.5,10.5,0,0,0,.33,2.9C79.19,121.14,79.41,121.49,78.25,122.42Z"/></svg>