<svg id="레이어_1" data-name="레이어 1" xmlns="http://www.w3.org/2000/svg" viewBox="0 0 196.87 133.05"><defs><style>.cls-1{fill:#e2bdb6;}.cls-2{fill:#312b4e;}.cls-3{fill:#ea999a;}.cls-4{fill:#fff;}.cls-5{fill:#eb733a;}.cls-6{fill:#d6d4c9;}</style></defs><path class="cls-1" d="M2.56,133.35c-.93-1,.44-1.68.58-3.06s-.05-1.39.09-2.76.3-1.36.44-2.74-.08-1.39.06-2.77,0-1.38.17-2.76.67-1.32.81-2.69-.24-1.42-.1-2.79.07-1.39.21-2.76.29-1.36.43-2.73.25-1.37.39-2.74.55-1.34.69-2.71S6,101.41,6.1,100s.59-1.33.73-2.7,0-1.39.17-2.76.42-1.35.56-2.73,0-1.38.14-2.76.1-1.38.24-2.76-.24-1.41-.1-2.79-.16-1.4,0-2.78,0-1.38.17-2.76.27-1.36.41-2.73.85-1.31,1-2.68S8.82,71.13,9,69.76s.74-1.32.87-2.69-.41-1.43-.27-2.81.36-1.35.5-2.73.52-1.34.66-2.71-.54-1.45-.4-2.82.72-1.32.86-2.69.38-1.36.52-2.74.12-1.37.26-2.75-.19-1.41-.05-2.79.53-1.33.67-2.71-.68-1.46-.54-2.84.16-1.37.3-2.75.31-1.36.45-2.74.54-1.33.68-2.71-.13-1.41,0-2.79.54-1.34.68-2.72-.94-1.67.09-2.61,1.2-.51,2.57-.51h2.74c1.37,0,1.37.54,2.74.54s1.38,0,2.75,0h2.74c1.38,0,1.38-.51,2.75-.51s1.37-.13,2.74-.13,1.37.55,2.74.55,1.37.1,2.74.1,1.37-.32,2.75-.32,1.37.15,2.74.15,1.37-.29,2.75-.29h2.74c1.37,0,1.37.49,2.74.49s1.37,0,2.74,0,1.38.11,2.75.11,1.37-.39,2.74-.39,1.38-.33,2.75-.33,1.37.44,2.74.44,1.38-.13,2.75-.13,1.37.19,2.74.19,1.38-.58,2.75-.58,1.37.09,2.74.09,1.38.42,2.75.42,1.37-.14,2.74-.14,1.38.08,2.75.08,1.37.31,2.75.31,1.37-.15,2.74-.15,1.37-.23,2.75-.23,1.37.28,2.74.28,1.38-.62,2.75-.62,1.37.43,2.74.43,1.37.16,2.75.16,1.37-.49,2.74-.49,1.37.11,2.74.11,1.38-.07,2.75-.07,1.37.42,2.75.42,1.37-.59,2.74-.59,1.37.34,2.75.34,1.37.37,2.74.37,1.38-.67,2.75-.67,1.38.51,2.75.51,1.37-.56,2.75-.56,1.37.74,2.75.74,1.37-.47,2.75-.47,1.37.17,2.74.17,1.38-.21,2.75-.21,1.38.48,2.75.48,1.38-.66,2.75-.66,1.38.24,2.76.24,1.58-.58,2.56.39-.25,1.18-.25,2.56.81,1.37.81,2.75.07,1.37.07,2.74-.4,1.38-.4,2.75-.16,1.38-.16,2.75.47,1.38.47,2.75.12,1.38.12,2.75-.66,1.38-.66,2.75.17,1.38.17,2.75.41,1.38.41,2.75-.66,1.38-.66,2.76.31,1.37.31,2.75.23,1.37.23,2.75-.1,1.37-.1,2.75-.5,1.37-.5,2.75,0,1.37,0,2.75-.07,1.37-.07,2.75.19,1.38.19,2.75,0,1.38,0,2.75.4,1.38.4,2.76.28,1.37.28,2.74-.39,1.38-.39,2.75-.31,1.38-.31,2.75.24,1.38.24,2.75-.34,1.38-.34,2.75.68,1.38.68,2.75,0,1.38,0,2.75S154,98.61,154,100s-.26,1.37-.26,2.75.55,1.38.55,2.75-.51,1.38-.51,2.75.06,1.38.06,2.76-.2,1.38-.2,2.75.2,1.38.2,2.76.07,1.37.07,2.75.64,1.38.64,2.76-.63,1.37-.63,2.75-.2,1.38-.2,2.76.37,1.38.37,2.76,1.13,1.91.16,2.89-1.51.29-2.88.29-1.37-.57-2.75-.57-1.37,0-2.74,0-1.37.41-2.74.41-1.38-.78-2.75-.78-1.37.92-2.74.92-1.38-.39-2.75-.39-1.38-.18-2.75-.18-1.38.34-2.75.34-1.37-.44-2.75-.44-1.37.62-2.74.62-1.37-.67-2.75-.67-1.37.38-2.74.38S117,133,115.66,133s-1.38.08-2.75.08-1.37-.42-2.75-.42-1.37.55-2.75.55S106,133,104.67,133s-1.38,0-2.75,0-1.37.33-2.75.33-1.37-.61-2.75-.61-1.37.18-2.75.18-1.37.26-2.75.26-1.37-.43-2.74-.43-1.38.41-2.75.41-1.38-.3-2.75-.3-1.38-.25-2.75-.25-1.38.41-2.75.41-1.38-.11-2.75-.11-1.38.16-2.75.16-1.38,0-2.75,0-1.38-.56-2.75-.56-1.38.05-2.75.05-1.38.47-2.75.47-1.38.07-2.75.07-1.37-.44-2.75-.44-1.37.07-2.75.07-1.37-.1-2.75-.1-1.37.81-2.74.81-1.38-.86-2.75-.86-1.38.33-2.75.33-1.38.33-2.75.33-1.38-.05-2.75-.05-1.38.27-2.75.27-1.38-.68-2.76-.68-1.37.33-2.75.33-1.37.2-2.75.2-1.38-.81-2.75-.81-1.38.33-2.76.33H16.67c-1.37,0-1.37.45-2.75.45s-1.38-.49-2.76-.49-1.37.65-2.75.65S7,132.66,5.64,133C4,133.45,3.48,134.37,2.56,133.35Z"/><path class="cls-2" d="M153.92,22.8c.93-1,1.52.36,2.86.36s1.34.05,2.67.05,1.34-.38,2.68-.38,1.33.44,2.67.44,1.34-.41,2.68-.41,1.33.38,2.67.38,1.34-.76,2.67-.76h2.68c1.34,0,1.34.36,2.68.36s1.34.49,2.68.49,1.34-.25,2.68-.25,1.55-.87,2.52.06.45,1.19.55,2.56.32,1.36.42,2.74-.69,1.43-.59,2.8.58,1.34.67,2.71-.31,1.41-.21,2.78.39,1.36.49,2.73.48,1.35.57,2.73-.49,1.41-.4,2.79,0,1.38.07,2.76.82,1.32.91,2.7-.24,1.4-.14,2.77.45,1.35.55,2.73-.59,1.42-.49,2.8.41,1.35.5,2.72-.11,1.4,0,2.77.11,1.38.21,2.75-.1,1.39,0,2.77.78,1.32.87,2.7-.61,1.43-.52,2.8.66,1.34.76,2.71-.4,1.41-.31,2.79.78,1.32.88,2.7.11,1.37.21,2.75.12,1.37.21,2.74-.73,1.44-.63,2.81.31,1.36.4,2.74-.07,1.39,0,2.76.15,1.38.25,2.75.25,1.37.35,2.74.39,1.36.49,2.74-.36,1.4-.27,2.78.3,1.36.4,2.74.16,1.37.25,2.75.36,1.36.45,2.74-.15,1.39-.05,2.77.62,1.34.71,2.72-.23,1.4-.13,2.77,0,1.39.09,2.77-.18,1.4-.08,2.78,1.42,1.73.46,2.73-1.41-.48-2.83-.48-1.42.5-2.85.5-1.42-.09-2.84-.09-1.43-.31-2.85-.31-1.42.34-2.85.34-1.42-.31-2.85-.31-1.42.21-2.84.21-1.43-.17-2.85-.17-1.43-.12-2.85-.12-1.42.73-2.85.73-1.42-.29-2.85-.29-1.42,0-2.85,0-1.42.44-2.85.44-1.75.5-2.78-.49.18-1.3.18-2.67.08-1.38.08-2.75-.48-1.38-.48-2.75.36-1.37.36-2.75.19-1.37.19-2.75-.74-1.37-.74-2.75.26-1.37.26-2.75-.23-1.37-.23-2.75-.15-1.37-.15-2.75,0-1.37,0-2.75-.05-1.37-.05-2.75.75-1.38.75-2.75-.28-1.38-.28-2.75-.07-1.38-.07-2.75.42-1.38.42-2.75-.22-1.38-.22-2.75-.14-1.38-.14-2.76-.21-1.37-.21-2.75.54-1.37.54-2.75-.74-1.37-.74-2.75.75-1.37.75-2.75.06-1.37.06-2.75-.43-1.37-.43-2.75.37-1.37.37-2.75.15-1.37.15-2.75-.83-1.37-.83-2.75,0-1.37,0-2.75S154,57.41,154,56s-.12-1.38-.12-2.75,0-1.38,0-2.76.13-1.37.13-2.75.34-1.38.34-2.75-.21-1.38-.21-2.76-.29-1.38-.29-2.75-.14-1.38-.14-2.76.41-1.37.41-2.75-.19-1.38-.19-2.76.16-1.37.16-2.75a7.44,7.44,0,0,0-.21-2.7C153.46,24.28,153,23.79,153.92,22.8Z"/><path class="cls-2" d="M150.09.31c-1.39,0-1.39-.61-2.79-.61s-1.39.36-2.78.36-1.39-.46-2.78-.46-1.4.77-2.79.77-1.39-.8-2.78-.8-1.39.54-2.79.54S132-.27,130.6-.27s-1.4.54-2.79.54-1.39.21-2.78.21-1.39,0-2.79,0-1.39-.62-2.78-.62-1.4.47-2.79.47-1.39-.69-2.78-.69-1.4,0-2.79,0-1.39.29-2.79.29-1.39-.4-2.78-.4h-2.79c-1.39,0-1.39.28-2.79.28s-1.39-.15-2.78-.15-1.39.17-2.79.17S93,.4,91.59.4,90.2-.27,88.81-.27,87.42-.41,86-.41s-1.39.07-2.78.07-1.39-.07-2.78-.07-1.4.57-2.79.57-1.39-.51-2.78-.51-1.4.67-2.79.67H69.31c-1.39,0-1.39-.5-2.79-.5s-1.39.41-2.78.41S62.34.06,61,.06s-1.4.32-2.79.32-1.4,0-2.79,0S54-.08,52.58-.08s-1.39,0-2.79,0S48.4-.27,47-.27s-1.39.42-2.79.42-1.4-.44-2.8-.44-1.39,0-2.79,0c-1.2,0-1.2,0-2.4,0S35-.17,33.81-.17s-1.7-.83-2.55,0,0,1.35,0,2.55.54,1.21.54,2.41-.24,1.2-.24,2.41-.61,1.31-.61,2.62.19,1.31.19,2.62.19,1.32.19,2.63S31,16.4,31,17.72s.31,1.31.31,2.63S30.51,22,31.4,23s1.2-.25,2.41-.25,1.2.37,2.4.37,1.78.93,2.59,0,.2-1.48.2-2.8-.57-1.31-.57-2.62.16-1.31.16-2.63.27-1.31.27-2.62-.35-1.32-.35-2.63-.92-1.81,0-2.71,1.46.3,2.86.3,1.39.21,2.78.21,1.39-.47,2.78-.47,1.39-.32,2.79-.32,1.39.6,2.78.6,1.39-.7,2.79-.7h2.78c1.39,0,1.39.84,2.79.84s1.39-.71,2.78-.71,1.39-.12,2.79-.12,1.39.42,2.78.42S70.65,6.9,72,6.9s1.39.22,2.78.22,1.4-.23,2.79-.23,1.39.66,2.79.66,1.39-.49,2.78-.49,1.39.18,2.79.18,1.39,0,2.78,0,1.4-.38,2.79-.38,1.39.24,2.79.24S95.72,7,97.11,7s1.4.51,2.79.51,1.39-.7,2.78-.7,1.4.3,2.79.3,1.39,0,2.78,0,1.39-.25,2.79-.25,1.39.4,2.78.4,1.4.11,2.79.11S118,7,119.4,7s1.39,0,2.79,0,1.39.66,2.78.66,1.4-.51,2.79-.51,1.4-.06,2.79-.06,1.4,0,2.79,0,1.39,0,2.79,0,1.39.61,2.79.61,1.39-.64,2.79-.64,1.39-.23,2.79-.23,1.4.39,2.79.39,1.9-1.09,2.92-.13-.29,1.44-.29,2.75.37,1.31.37,2.62-.43,1.32-.43,2.63-.2,1.31-.2,2.63,0,1.31,0,2.63-.79,2,.09,2.95,1.56-.58,2.76-.58,1.21.44,2.41.44,1.77.86,2.58,0-.32-1.47-.32-2.79.44-1.31.44-2.62-.41-1.31-.41-2.63.38-1.31.38-2.62-.76-1.32-.76-2.63,0-1.32,0-2.63.36-1.2.36-2.41.49-1.2.49-2.4.57-1.64-.28-2.49-1.29-.16-2.49-.16-1.19.33-2.39.43A19.71,19.71,0,0,1,150.09.31Z"/><path class="cls-3" d="M102.49,133c-1,1-1.38,0-2.76,0s-1.39.26-2.78.26H94.18c-1.38,0-1.38-.66-2.77-.66s-1.39,0-2.77,0-1.39.38-2.78.38-1.38-.14-2.77-.14-1.38,0-2.77,0-1.39,0-2.78,0-1.38.42-2.77.42-1.39-.18-2.77-.18-1.39-.24-2.78-.24-1.39.67-2.77.67-1.39-.58-2.78-.58-1.39.58-2.78.58-1.6.3-2.59-.68-.11-1.18-.11-2.55.32-1.38.32-2.75-.76-1.38-.76-2.75.58-1.37.58-2.75.15-1.37.15-2.75-.82-1.37-.82-2.75.07-1.37.07-2.75.79-1.37.79-2.75,0-1.37,0-2.75-.47-1.37-.47-2.75.25-1.37.25-2.75-.09-1.38-.09-2.75.1-1.38.1-2.75-.59-1.38-.59-2.75.48-1.38.48-2.75S58,90.42,58,89.05s.15-1.38.15-2.76-.1-1.37-.1-2.75.42-1.37.42-2.75-.26-1.37-.26-2.75-.13-1.37-.13-2.75.06-1.37.06-2.75V69.79c0-1.37-.1-1.37-.1-2.75s-.21-1.37-.21-2.75-.23-1.37-.23-2.75.3-1.37.3-2.75-.16-1.38-.16-2.75.66-1.38.66-2.75-.51-1.38-.51-2.76.33-1.37.33-2.75-.49-1.38-.49-2.75-.08-1.38-.08-2.76.1-1.38.1-2.75.53-1.38.53-2.76,0-1.37,0-2.75-.15-1.38-.15-2.76-.09-1.37-.09-2.75-.45-1.38-.45-2.76-.33-1.61.65-2.58,1.2.23,2.59.23,1.38,0,2.77,0,1.39,0,2.77,0,1.39-.86,2.77-.86S70.58,23,72,23s1.38.15,2.77.15,1.39-.48,2.77-.48,1.39.43,2.78.43,1.38.32,2.77.32,1.39-.12,2.78-.12,1.38-.52,2.77-.52,1.39-.12,2.77-.12,1.39.8,2.78.8,1.39-.13,2.78-.13,1.39-.13,2.78-.13,2.12-1.5,3.11-.53-.31,1.71-.31,3.09.37,1.37.37,2.75-.07,1.37-.07,2.74S102,32.6,102,34s1,1.38,1,2.75-.4,1.38-.4,2.75-.43,1.38-.43,2.75.72,1.38.72,2.75-.42,1.38-.42,2.75,0,1.38,0,2.75.39,1.38.39,2.76,0,1.37,0,2.75.12,1.37.12,2.75,0,1.37,0,2.75-.17,1.37-.17,2.75-.13,1.37-.13,2.75-.08,1.37-.08,2.75.08,1.38.08,2.75-.07,1.38-.07,2.75-.22,1.38-.22,2.76.14,1.37.14,2.74-.46,1.38-.46,2.75.3,1.38.3,2.75-.23,1.38-.23,2.75.31,1.38.31,2.75.44,1.38.44,2.75-.16,1.38-.16,2.75-.58,1.38-.58,2.76.72,1.37.72,2.75-.71,1.38-.71,2.75.82,1.38.82,2.75-.21,1.38-.21,2.76-.12,1.38-.12,2.75.16,1.38.16,2.76-.61,1.37-.61,2.75.36,1.38.36,2.76-.46,1.37-.46,2.75.76,1.38.76,2.76-1.07,1.5-.78,2.85S103.46,132.06,102.49,133Z"/><path class="cls-4" d="M50,90.94c0-1-.76-1.88-.9-2.8a19,19,0,0,0-.32-2.85,18.66,18.66,0,0,0-.86-2.78c-.43-.85-1.48-1.34-2-2.1s-.65-2-1.33-2.65S42.73,77,42,76.41a18.46,18.46,0,0,0-2.23-1.82,17.67,17.67,0,0,0-2.64-1.14,19.1,19.1,0,0,0-2.77-.91,20.68,20.68,0,0,0-2.92.14,18.71,18.71,0,0,0-2.83.37,19.11,19.11,0,0,0-2.86.38,19.82,19.82,0,0,0-2.74,1,17.92,17.92,0,0,0-2.51,1.47c-.77.56-1.18,1.6-1.85,2.27a18.86,18.86,0,0,0-1.81,2.18,17.6,17.6,0,0,0-1.2,2.56c-.43.84-1.3,1.49-1.59,2.4a18.84,18.84,0,0,0-.84,2.77,20.15,20.15,0,0,0,.15,2.88,17.13,17.13,0,0,0,.49,2.79,17.5,17.5,0,0,0,.77,2.68,18,18,0,0,0,.87,2.66c.44.85.3,2.07.86,2.84a18.37,18.37,0,0,0,2.12,2c.67.67,1.8.78,2.57,1.34a19.09,19.09,0,0,0,2.33,1.53,16.51,16.51,0,0,0,2.5,1.31,17.79,17.79,0,0,0,2.74.72,18,18,0,0,0,2.83-.1c1,0,2,.54,2.88.39A18.73,18.73,0,0,0,36.94,108a18.65,18.65,0,0,0,2.72-.83,18,18,0,0,0,2.61-1.26,18.08,18.08,0,0,0,2.26-1.83,18.36,18.36,0,0,0,2-2.16,18.19,18.19,0,0,0,1.26-2.63,18.89,18.89,0,0,0,1-2.7,18.32,18.32,0,0,0,.49-2.81C49.39,92.84,50,91.91,50,90.94Z"/><path class="cls-4" d="M146.83,90.94a18.5,18.5,0,0,0-.29-2.89,19,19,0,0,0-.52-2.86,19.3,19.3,0,0,0-1.46-2.53,18.29,18.29,0,0,0-1.51-2.43,19.23,19.23,0,0,0-2-2.06,18.09,18.09,0,0,0-2.34-1.58,18.87,18.87,0,0,0-2.18-1.83,19.93,19.93,0,0,0-2.5-1.5,19,19,0,0,0-2.84-.71,18.64,18.64,0,0,0-2.91-.12c-1,0-1.85.84-2.78,1s-2-.14-2.87.15a19.25,19.25,0,0,0-2.76.86,17.92,17.92,0,0,0-2.27,1.82,18.2,18.2,0,0,0-1.9,2.11c-.67.68-1.68,1-2.24,1.81a19.18,19.18,0,0,0-1.42,2.5A18.16,18.16,0,0,0,111,85.32a18.34,18.34,0,0,0-.91,2.74c-.15.92.35,1.92.35,2.88a18.8,18.8,0,0,0,.1,2.82,18,18,0,0,0,.68,2.74A17.9,17.9,0,0,0,112.45,99a18.24,18.24,0,0,0,1.38,2.44,16.81,16.81,0,0,0,1.94,2,17.83,17.83,0,0,0,2,2,17.54,17.54,0,0,0,2.22,1.83,19.09,19.09,0,0,0,2.75.85,18.36,18.36,0,0,0,2.74.81,33.1,33.1,0,0,0,5.66-.4,18.71,18.71,0,0,0,2.83-.33,18.3,18.3,0,0,0,2.54-1.28,17.42,17.42,0,0,0,2.39-1.5,18.74,18.74,0,0,0,2.16-1.82,17.86,17.86,0,0,0,1.66-2.27,19,19,0,0,0,1.86-2.17c.43-.85.28-1.9.57-2.81s1.18-1.64,1.33-2.59A19.56,19.56,0,0,0,146.83,90.94Z"/><path class="cls-5" d="M91,68.51c-1-1-1.18-.49-2.6-.49s-1.42,0-2.84,0S84.12,68,82.7,68s-1.42.18-2.84.18-1.42-.34-2.84-.34-1.42.35-2.84.35-1.43.45-2.85.45-2-1.53-3-.53-.08,1.61-.08,3-.16,1.42-.16,2.84,0,1.42,0,2.84.5,1.42.5,2.84-.07,1.42-.07,2.84.17,1.42.17,2.84.34,1.42.34,2.85-1.59,1.92-.58,2.93,1.5-.33,2.92-.33,1.42.28,2.84.28,1.42.1,2.84.1,1.42-.07,2.84-.07,1.42.2,2.84.2,1.43.09,2.85.09S87,91,88.37,91s1.78,1,2.78,0,.24-1.36.24-2.78-.56-1.42-.56-2.84.6-1.42.6-2.84-.58-1.42-.58-2.84.52-1.42.52-2.84-.5-1.42-.5-2.84a11.56,11.56,0,0,1,.23-2.87C91.33,69.72,92,69.52,91,68.51Z"/><path class="cls-6" d="M94.08,59c-1.1.86-1.62-.59-3-.59s-1.4.16-2.8.16-1.39.51-2.79.51-1.4-.14-2.8-.14-1.39,0-2.79,0-1.4.15-2.79.15-1.4-.55-2.8-.55-1.4-.27-2.8-.27-1.4.63-2.8.63-2,1-3.06.17.3-1.77,0-3.11-.84-1.23-1.16-2.58.14-1.46-.19-2.8S63.36,49.34,63,48s.24-1.49-.08-2.84S62,44,61.62,42.61s-1.18-1.74-.3-2.82,1.46.47,2.88.47,1.43,0,2.85,0,1.43-.81,2.85-.81,1.42.48,2.85.48,1.42-.28,2.85-.28,1.42.13,2.85.13,1.42-.09,2.85-.09,1.42-.14,2.84-.14,1.43.33,2.85.33,1.43.28,2.85.28,1.43-.07,2.86-.07,1.42.12,2.85.12,2.15-1.69,3-.59-.18,1.58-.51,2.93-.46,1.31-.79,2.66-1,1.19-1.32,2.53.3,1.51,0,2.85-.19,1.39-.52,2.74S94.16,54.61,94.16,56C94.17,57.6,95.18,58.13,94.08,59Z"/><path class="cls-5" d="M70.4,115.09c-1.56,1-2.33,1.57-3.89.55-1-.66-.13-1.61-.13-2.83s.52-1.22.52-2.43-.55-1.22-.55-2.44-.61-1.79.41-2.46c1.56-1,2.19-1,3.75,0,1,.67.36,1.24.36,2.45s0,1.22,0,2.44-.93,1.32-.66,2.5S71.42,114.42,70.4,115.09Z"/><path class="cls-5" d="M86.75,111.52c-1.56,1-2.31.81-3.87-.21-1-.66.49-1.22.49-2.43s-.46-1.22-.46-2.44-.42-1.22-.42-2.44-.63-1.78.39-2.44c1.56-1,2.13-1,3.7.06,1,.66-.33,1.16-.33,2.38s.18,1.22.18,2.43.33,1.14.64,2.32C87.44,110.15,87.77,110.85,86.75,111.52Z"/><path class="cls-5" d="M95.12,118.34c-1.56,1-2.59,1.14-4.16.12-1-.66.2-1.61.2-2.82s-.34-1.22-.34-2.44S91,112,91,110.76s-1-2.06,0-2.72a3.13,3.13,0,0,1,4.1,0c1,.66-.53,1.49-.53,2.71s.6,1.22.6,2.43-.56,1.26-.25,2.44C95.33,117.06,96.14,117.67,95.12,118.34Z"/><path class="cls-5" d="M78.24,124.6c-1.56,1-1.89,1.37-3.45.35-1-.66-.22-1.18-.22-2.4s.21-1.21.21-2.43.41-1.22.41-2.44-1.22-1.44-.2-2.1c1.56-1,2.05-1.52,3.61-.5,1,.67-.17,1.38-.17,2.6s.39,1.21.39,2.43a7.72,7.72,0,0,0,.14,2.35C79.18,123.58,79.26,123.93,78.24,124.6Z"/></svg>