<svg id="레이어_1" data-name="레이어 1" xmlns="http://www.w3.org/2000/svg" viewBox="0 0 196.87 239.3"><defs><style>.cls-1{fill:#e2bdb6;}.cls-2{fill:#312b4e;}.cls-3{fill:#ea999a;}.cls-4{fill:#fff;}.cls-5{fill:#eb733a;}.cls-6{fill:#d6d4c9;}</style></defs><path class="cls-1" d="M2.35,237.38c-.93-1,.44-1.68.58-3.06s-.06-1.39.08-2.77.3-1.35.44-2.73-.07-1.4.07-2.77,0-1.39.16-2.76.68-1.32.82-2.7-.24-1.41-.1-2.79.07-1.38.21-2.75.29-1.36.43-2.74.25-1.36.39-2.73.55-1.34.69-2.72-.37-1.42-.23-2.8.59-1.33.73-2.7,0-1.39.17-2.76.42-1.35.56-2.73,0-1.39.14-2.76.1-1.38.24-2.76-.24-1.41-.1-2.79-.16-1.4,0-2.78,0-1.39.17-2.76.27-1.36.41-2.74.85-1.3,1-2.68-.57-1.44-.43-2.82.73-1.31.87-2.68-.41-1.44-.27-2.81.35-1.36.49-2.73.53-1.34.67-2.71-.54-1.45-.4-2.83.72-1.31.86-2.69.38-1.35.52-2.73.11-1.38.25-2.75-.18-1.41,0-2.79.53-1.34.67-2.71-.68-1.47-.54-2.84.15-1.38.29-2.75.32-1.36.46-2.74.54-1.34.68-2.71-.13-1.41,0-2.79.53-1.34.67-2.72-.93-1.67.1-2.61,1.2-.51,2.57-.51,1.37,0,2.74,0,1.37.55,2.74.55,1.38,0,2.75,0h2.74c1.37,0,1.37-.51,2.74-.51s1.38-.13,2.75-.13,1.37.55,2.74.55,1.37.1,2.74.1,1.37-.32,2.74-.32,1.38.15,2.75.15,1.37-.29,2.74-.29h2.75c1.37,0,1.37.49,2.74.49s1.37,0,2.74,0,1.37.1,2.75.1,1.37-.39,2.74-.39,1.37-.32,2.75-.32,1.37.44,2.74.44,1.37-.13,2.75-.13,1.37.19,2.74.19,1.37-.58,2.75-.58,1.37.09,2.74.09,1.37.42,2.75.42,1.37-.14,2.74-.14,1.38.07,2.75.07,1.37.31,2.74.31,1.38-.15,2.75-.15,1.37-.22,2.75-.22,1.37.27,2.74.27,1.37-.62,2.75-.62,1.37.43,2.74.43,1.37.16,2.74.16,1.38-.48,2.75-.48,1.37.1,2.74.1,1.37-.06,2.75-.06,1.37.41,2.74.41,1.38-.58,2.75-.58,1.37.34,2.75.34,1.37.37,2.74.37,1.38-.67,2.75-.67,1.37.5,2.75.5,1.37-.55,2.75-.55,1.37.74,2.75.74,1.37-.48,2.75-.48,1.37.18,2.74.18,1.38-.21,2.75-.21,1.38.47,2.75.47,1.38-.65,2.75-.65,1.38.23,2.76.23,1.58-.57,2.56.4-.25,1.18-.25,2.56.8,1.37.8,2.74.08,1.38.08,2.75-.4,1.38-.4,2.75-.17,1.38-.17,2.75.48,1.38.48,2.75.11,1.38.11,2.75-.65,1.38-.65,2.75.17,1.38.17,2.75.41,1.38.41,2.75-.66,1.38-.66,2.75.31,1.38.31,2.75.22,1.38.22,2.75-.09,1.38-.09,2.75-.51,1.38-.51,2.76,0,1.37,0,2.75-.07,1.37-.07,2.75.19,1.37.19,2.75,0,1.38,0,2.75.4,1.38.4,2.75.28,1.38.28,2.75-.39,1.37-.39,2.75-.31,1.38-.31,2.75.23,1.37.23,2.75-.33,1.37-.33,2.75.68,1.37.68,2.75,0,1.38,0,2.75-.42,1.38-.42,2.75-.25,1.38-.25,2.76.55,1.37.55,2.75-.51,1.38-.51,2.75.06,1.38.06,2.76-.2,1.37-.2,2.75.2,1.38.2,2.76.07,1.37.07,2.75.64,1.38.64,2.75-.63,1.38-.63,2.76-.2,1.38-.2,2.75.37,1.38.37,2.77,1.13,1.91.16,2.89-1.51.28-2.88.28-1.38-.56-2.75-.56-1.37,0-2.74,0-1.37.42-2.75.42-1.37-.79-2.74-.79-1.37.92-2.75.92-1.37-.38-2.74-.38-1.38-.18-2.75-.18-1.38.34-2.75.34-1.38-.45-2.75-.45-1.37.63-2.74.63-1.38-.68-2.75-.68-1.37.39-2.75.39-1.37-.16-2.74-.16-1.38.07-2.75.07-1.38-.41-2.75-.41-1.38.55-2.75.55-1.37-.17-2.75-.17-1.37,0-2.74,0-1.38.33-2.75.33-1.38-.62-2.75-.62-1.38.19-2.75.19-1.37.26-2.75.26-1.37-.43-2.75-.43-1.37.4-2.75.4-1.37-.29-2.75-.29-1.37-.26-2.75-.26-1.37.41-2.74.41-1.38-.1-2.75-.1-1.38.16-2.75.16-1.38,0-2.75,0-1.38-.56-2.75-.56-1.38.05-2.75.05-1.38.47-2.75.47-1.38.07-2.75.07-1.38-.44-2.75-.44-1.37.06-2.75.06-1.37-.09-2.75-.09-1.37.81-2.74.81-1.38-.87-2.75-.87-1.38.34-2.75.34-1.38.33-2.75.33-1.38-.05-2.76-.05-1.37.27-2.75.27-1.37-.68-2.75-.68-1.37.33-2.75.33-1.38.2-2.75.2-1.38-.82-2.76-.82-1.37.34-2.75.34H16.46c-1.38,0-1.38.45-2.75.45s-1.38-.49-2.76-.49-1.38.65-2.75.65-1.44-.85-2.77-.5C3.82,237.48,3.27,238.4,2.35,237.38Z"/><path class="cls-2" d="M153.7,126.82c.93-1,1.53.37,2.87.37s1.33,0,2.67,0,1.34-.39,2.67-.39,1.34.45,2.68.45,1.34-.41,2.68-.41,1.33.37,2.67.37,1.33-.75,2.67-.75h2.68c1.34,0,1.34.37,2.68.37s1.34.49,2.68.49,1.34-.25,2.68-.25,1.55-.87,2.52.06.45,1.19.54,2.56.33,1.36.43,2.73-.69,1.43-.59,2.81.58,1.34.67,2.71-.31,1.41-.22,2.78.4,1.36.5,2.73.47,1.35.57,2.72-.5,1.42-.4,2.8,0,1.38.07,2.75.81,1.33.91,2.7-.24,1.4-.14,2.78.45,1.35.55,2.73-.59,1.42-.49,2.79.4,1.36.5,2.73-.11,1.39,0,2.77.11,1.37.2,2.75-.09,1.39,0,2.76.78,1.33.87,2.71-.61,1.42-.52,2.8.66,1.34.76,2.71-.4,1.41-.31,2.78.78,1.33.88,2.71.11,1.37.2,2.75.12,1.37.22,2.74-.73,1.43-.63,2.81.3,1.36.4,2.74-.07,1.38,0,2.76.15,1.37.24,2.75.26,1.36.36,2.74.39,1.36.48,2.73-.36,1.41-.26,2.79.3,1.36.4,2.74.15,1.37.25,2.75.35,1.36.45,2.74-.15,1.39-.06,2.77.62,1.34.72,2.71-.23,1.4-.13,2.78,0,1.39.09,2.77-.18,1.39-.08,2.77,1.42,1.74.46,2.74-1.41-.48-2.83-.48-1.43.5-2.85.5-1.42-.09-2.85-.09-1.42-.31-2.84-.31-1.43.34-2.85.34-1.42-.31-2.85-.31-1.42.21-2.85.21-1.42-.17-2.85-.17-1.42-.12-2.84-.12-1.43.73-2.85.73-1.42-.29-2.85-.29-1.42,0-2.85,0-1.43.43-2.85.43S155,238,154,237s.18-1.29.18-2.67.08-1.37.08-2.74-.49-1.38-.49-2.75.37-1.38.37-2.75.18-1.38.18-2.75-.74-1.38-.74-2.75.27-1.38.27-2.75-.23-1.38-.23-2.75-.15-1.38-.15-2.75,0-1.38,0-2.75,0-1.38,0-2.75.75-1.38.75-2.75-.28-1.38-.28-2.75-.07-1.38-.07-2.75.42-1.38.42-2.76-.23-1.37-.23-2.75-.13-1.37-.13-2.75-.22-1.37-.22-2.75.55-1.38.55-2.75-.74-1.38-.74-2.75.75-1.38.75-2.75.06-1.37.06-2.75-.43-1.38-.43-2.75.36-1.37.36-2.75.16-1.37.16-2.75-.84-1.37-.84-2.75,0-1.38,0-2.75.17-1.38.17-2.75-.12-1.38-.12-2.76,0-1.37,0-2.75.12-1.38.12-2.75.35-1.38.35-2.76-.21-1.37-.21-2.75-.29-1.38-.29-2.76-.15-1.37-.15-2.75.42-1.38.42-2.75-.19-1.38-.19-2.76.16-1.38.16-2.75a7.65,7.65,0,0,0-.21-2.7C153.24,128.3,152.74,127.81,153.7,126.82Z"/><path class="cls-2" d="M149.88,104.34c-1.4,0-1.4-.61-2.79-.61s-1.39.36-2.78.36-1.39-.46-2.79-.46-1.39.76-2.78.76-1.39-.79-2.78-.79-1.4.54-2.79.54-1.39-.38-2.79-.38-1.39.54-2.78.54-1.39.21-2.78.21-1.4-.06-2.79-.06-1.39-.61-2.79-.61-1.39.46-2.78.46-1.39-.68-2.79-.68-1.39,0-2.78,0-1.4.3-2.79.3-1.39-.4-2.78-.4h-2.79c-1.39,0-1.39.28-2.79.28s-1.39-.15-2.78-.15-1.4.17-2.79.17-1.39.56-2.79.56-1.39-.67-2.78-.67-1.4-.14-2.79-.14-1.39.06-2.78.06-1.39-.06-2.78-.06-1.4.57-2.79.57-1.39-.51-2.79-.51-1.39.66-2.78.66H69.1c-1.4,0-1.4-.5-2.79-.5s-1.39.41-2.79.41-1.39-.17-2.79-.17-1.39.32-2.79.32H55.15c-1.39,0-1.39-.47-2.78-.47s-1.4,0-2.79,0-1.4-.15-2.79-.15-1.4.42-2.79.42-1.4-.44-2.8-.44-1.4,0-2.79,0c-1.2,0-1.2,0-2.41,0s-1.2.13-2.4.13-1.71-.83-2.56,0,0,1.35,0,2.55.53,1.2.53,2.41-.24,1.2-.24,2.41-.6,1.31-.6,2.62.19,1.31.19,2.62.19,1.32.19,2.63-.35,1.31-.35,2.62.3,1.32.3,2.63-.75,1.66.14,2.63,1.2-.24,2.4-.24,1.21.37,2.41.37,1.78.93,2.59,0,.2-1.48.2-2.79-.57-1.31-.57-2.62.15-1.32.15-2.63.28-1.31.28-2.62-.35-1.32-.35-2.63-.92-1.81,0-2.71,1.47.29,2.86.29,1.39.22,2.79.22,1.39-.47,2.78-.47,1.39-.32,2.78-.32,1.4.6,2.79.6,1.39-.7,2.78-.7H57.9c1.39,0,1.39.84,2.78.84s1.4-.72,2.79-.72,1.39-.11,2.78-.11,1.4.42,2.79.42,1.39-.28,2.79-.28,1.39.22,2.78.22,1.39-.23,2.79-.23,1.39.66,2.78.66,1.4-.49,2.79-.49,1.39.17,2.78.17,1.4,0,2.79,0,1.39-.37,2.79-.37,1.39.24,2.78.24,1.4-.09,2.79-.09,1.39.51,2.79.51,1.39-.69,2.78-.69,1.39.3,2.78.3,1.4,0,2.79,0,1.39-.24,2.79-.24,1.39.4,2.78.4,1.39.1,2.79.1,1.39-.39,2.78-.39,1.4,0,2.79,0,1.4.67,2.79.67,1.4-.51,2.79-.51,1.39-.06,2.79-.06h2.79c1.39,0,1.39,0,2.79,0s1.39.61,2.79.61,1.39-.64,2.79-.64,1.39-.23,2.79-.23,1.39.38,2.79.38,1.9-1.08,2.92-.13-.3,1.45-.3,2.76.37,1.31.37,2.62-.42,1.32-.42,2.63-.2,1.31-.2,2.62,0,1.32,0,2.63-.8,2,.09,3,1.56-.59,2.76-.59,1.2.45,2.41.45,1.76.86,2.58,0-.33-1.47-.33-2.78.45-1.31.45-2.62-.41-1.32-.41-2.63.37-1.31.37-2.62-.75-1.32-.75-2.63v-2.63c0-1.21.37-1.21.37-2.41s.49-1.2.49-2.41.56-1.63-.29-2.48-1.28-.16-2.48-.16-1.19.32-2.39.43A19.71,19.71,0,0,1,149.88,104.34Z"/><path class="cls-3" d="M102.27,237.06c-1,1-1.37,0-2.76,0s-1.38.27-2.77.27H94c-1.38,0-1.38-.66-2.77-.66s-1.39,0-2.77,0-1.39.38-2.78.38-1.38-.14-2.77-.14-1.39,0-2.77,0-1.39,0-2.78,0-1.39.41-2.77.41-1.39-.17-2.78-.17-1.38-.24-2.77-.24-1.39.67-2.78.67-1.39-.58-2.77-.58-1.39.58-2.78.58-1.6.3-2.59-.68S58,235.7,58,234.32s.32-1.37.32-2.74-.76-1.38-.76-2.75.57-1.38.57-2.75.16-1.38.16-2.75-.82-1.38-.82-2.75.07-1.38.07-2.75.79-1.38.79-2.75,0-1.38,0-2.75-.47-1.38-.47-2.75.25-1.38.25-2.75-.09-1.38-.09-2.75.09-1.38.09-2.75-.59-1.38-.59-2.75.49-1.38.49-2.76-.15-1.37-.15-2.75.15-1.37.15-2.75-.1-1.37-.1-2.75.42-1.38.42-2.75-.27-1.38-.27-2.75-.12-1.38-.12-2.75S58,178,58,176.57v-2.75c0-1.37-.09-1.37-.09-2.75s-.21-1.37-.21-2.75-.24-1.37-.24-2.75.31-1.38.31-2.75-.16-1.38-.16-2.75.66-1.38.66-2.76-.51-1.37-.51-2.75.33-1.38.33-2.75-.49-1.38-.49-2.76-.08-1.37-.08-2.75.1-1.38.1-2.76.52-1.37.52-2.75,0-1.38,0-2.75-.15-1.38-.15-2.76-.08-1.38-.08-2.75-.45-1.38-.45-2.77-.33-1.6.64-2.58,1.21.23,2.6.23,1.38,0,2.77,0,1.38,0,2.77,0,1.38-.86,2.77-.86,1.39.44,2.77.44,1.39.14,2.78.14,1.38-.47,2.77-.47,1.39.43,2.77.43,1.39.31,2.78.31,1.39-.12,2.77-.12,1.39-.52,2.78-.52,1.38-.11,2.77-.11,1.39.79,2.78.79,1.39-.13,2.77-.13,1.39-.12,2.78-.12,2.12-1.51,3.11-.53-.3,1.71-.3,3.09.37,1.37.37,2.74-.07,1.38-.07,2.75-.8,1.38-.8,2.75,1,1.38,1,2.75-.4,1.38-.4,2.75-.43,1.38-.43,2.75.72,1.38.72,2.75-.43,1.38-.43,2.75v2.75c0,1.38.39,1.38.39,2.75s0,1.38,0,2.75.12,1.38.12,2.75,0,1.38,0,2.75-.17,1.38-.17,2.76-.13,1.37-.13,2.75-.08,1.37-.08,2.75.07,1.37.07,2.75-.06,1.38-.06,2.75-.22,1.38-.22,2.75.14,1.38.14,2.75-.46,1.37-.46,2.75.29,1.38.29,2.75-.22,1.37-.22,2.75.31,1.37.31,2.75.44,1.37.44,2.75-.16,1.38-.16,2.75-.59,1.38-.59,2.75.73,1.38.73,2.76-.71,1.37-.71,2.75.81,1.38.81,2.75-.2,1.38-.2,2.76-.13,1.37-.13,2.75.16,1.38.16,2.76-.6,1.37-.6,2.75.36,1.38.36,2.75-.46,1.38-.46,2.76.76,1.38.76,2.75-1.07,1.5-.79,2.85S103.25,236.09,102.27,237.06Z"/><path class="cls-4" d="M49.81,195c0-1-.76-1.88-.9-2.81a18.69,18.69,0,0,0-.32-2.84,19.51,19.51,0,0,0-.86-2.78c-.43-.85-1.48-1.34-2-2.11s-.65-2-1.32-2.64-1.85-.8-2.62-1.36a19.18,19.18,0,0,0-2.23-1.81,17.34,17.34,0,0,0-2.65-1.14,18.7,18.7,0,0,0-2.77-.91,20.61,20.61,0,0,0-2.91.14,17.52,17.52,0,0,0-2.83.37,18.94,18.94,0,0,0-2.86.38,19.33,19.33,0,0,0-2.74,1,19.8,19.8,0,0,0-2.52,1.48c-.77.56-1.17,1.6-1.84,2.27a18,18,0,0,0-1.81,2.18,18.76,18.76,0,0,0-1.21,2.56c-.43.84-1.29,1.49-1.58,2.4a18.71,18.71,0,0,0-.84,2.76,20.29,20.29,0,0,0,.15,2.89,17.32,17.32,0,0,0,.49,2.79,17.5,17.5,0,0,0,.77,2.68,18,18,0,0,0,.87,2.66c.43.85.3,2.07.86,2.84a19.12,19.12,0,0,0,2.11,2c.68.67,1.81.77,2.58,1.33a17,17,0,0,0,2.33,1.53,18,18,0,0,0,2.49,1.32,18.22,18.22,0,0,0,2.75.72,19.37,19.37,0,0,0,2.83-.1c1,0,1.95.53,2.88.39A17.69,17.69,0,0,0,36.73,212a17.47,17.47,0,0,0,2.72-.82,19,19,0,0,0,2.6-1.27,18.77,18.77,0,0,0,4.24-4,18.19,18.19,0,0,0,1.26-2.63,18.89,18.89,0,0,0,1-2.7A18.54,18.54,0,0,0,49,197.8C49.18,196.87,49.81,195.94,49.81,195Z"/><path class="cls-4" d="M146.62,195a18.38,18.38,0,0,0-.29-2.89,19.36,19.36,0,0,0-.52-2.87,19.19,19.19,0,0,0-1.46-2.52,19.07,19.07,0,0,0-1.51-2.44,18.25,18.25,0,0,0-2-2.05,18.8,18.8,0,0,0-2.34-1.58,18,18,0,0,0-2.19-1.83,19.24,19.24,0,0,0-2.5-1.5,17.75,17.75,0,0,0-2.83-.71,18.64,18.64,0,0,0-2.91-.12c-1,0-1.85.84-2.78,1s-2-.14-2.87.15a18.54,18.54,0,0,0-2.77.86,19.48,19.48,0,0,0-2.26,1.81,18.29,18.29,0,0,0-1.9,2.12c-.67.67-1.68,1-2.25,1.81a19.12,19.12,0,0,0-1.41,2.5,18.5,18.5,0,0,0-1.08,2.64,17.6,17.6,0,0,0-.91,2.74c-.15.93.35,1.92.35,2.89a17.57,17.57,0,0,0,.1,2.82,13,13,0,0,0,1.93,5.26,16.56,16.56,0,0,0,1.38,2.43,17.62,17.62,0,0,0,1.93,2,17.09,17.09,0,0,0,2,2,18.44,18.44,0,0,0,2.22,1.83,19.09,19.09,0,0,0,2.75.85,18,18,0,0,0,2.74.81,18.36,18.36,0,0,0,2.86-.08,17,17,0,0,0,2.79-.33,17.38,17.38,0,0,0,2.83-.32,17.87,17.87,0,0,0,2.55-1.28,19.58,19.58,0,0,0,2.39-1.5,12.07,12.07,0,0,0,3.82-4.09,18.09,18.09,0,0,0,1.85-2.18c.43-.84.28-1.89.58-2.8s1.18-1.64,1.33-2.6A19.25,19.25,0,0,0,146.62,195Z"/><path class="cls-5" d="M90.76,172.54c-1-1-1.17-.49-2.59-.49s-1.42,0-2.84,0-1.42-.09-2.84-.09-1.42.18-2.84.18-1.42-.34-2.84-.34-1.43.34-2.85.34-1.42.45-2.84.45-2-1.53-3-.52-.08,1.61-.08,3-.16,1.42-.16,2.84,0,1.42,0,2.84.5,1.42.5,2.84-.07,1.42-.07,2.84.17,1.42.17,2.84.35,1.42.35,2.85-1.59,1.92-.58,2.93,1.5-.33,2.92-.33,1.42.27,2.84.27,1.42.1,2.84.1,1.42-.06,2.84-.06,1.42.19,2.84.19,1.42.1,2.84.1,1.43-.39,2.85-.39,1.77,1,2.78,0,.24-1.36.24-2.78-.57-1.42-.57-2.84.61-1.42.61-2.84-.58-1.42-.58-2.84.51-1.42.51-2.84-.5-1.42-.5-2.84a11.52,11.52,0,0,1,.23-2.87C91.12,173.75,91.77,173.54,90.76,172.54Z"/><path class="cls-6" d="M93.87,163c-1.1.86-1.62-.59-3-.59s-1.4.16-2.8.16-1.4.51-2.79.51-1.4-.14-2.8-.14-1.4,0-2.79,0-1.4.16-2.8.16-1.39-.55-2.79-.55-1.4-.27-2.8-.27-1.4.62-2.8.62-2,1-3.06.18.3-1.77,0-3.12-.84-1.22-1.16-2.57.13-1.46-.19-2.81-.92-1.2-1.24-2.55.24-1.49-.09-2.84-1-1.19-1.32-2.54-1.18-1.74-.3-2.82,1.46.47,2.88.47,1.42,0,2.85,0,1.42-.81,2.85-.81,1.42.47,2.84.47,1.43-.27,2.85-.27,1.43.13,2.85.13,1.43-.09,2.85-.09,1.43-.14,2.85-.14,1.43.33,2.85.33,1.43.28,2.85.28,1.43-.08,2.85-.08,1.43.13,2.86.13,2.14-1.7,3-.59-.18,1.58-.51,2.93-.46,1.31-.79,2.66-1,1.18-1.33,2.53.31,1.5,0,2.85-.19,1.38-.51,2.73S94,158.64,94,160C94,161.62,95,162.16,93.87,163Z"/><path class="cls-5" d="M70.19,219.12c-1.56,1-2.33,1.57-3.89.55-1-.66-.13-1.62-.13-2.83s.52-1.22.52-2.44-.55-1.22-.55-2.43-.61-1.79.41-2.46c1.56-1,2.19-1,3.75,0,1,.66.35,1.23.35,2.45v2.44c0,1.21-.93,1.31-.66,2.5S71.21,218.45,70.19,219.12Z"/><path class="cls-5" d="M86.54,215.55c-1.56,1-2.31.81-3.87-.21-1-.66.49-1.22.49-2.44s-.47-1.21-.47-2.43-.41-1.22-.41-2.44-.64-1.78.38-2.45c1.56-1,2.14-1,3.7.07,1,.66-.32,1.16-.32,2.38s.18,1.21.18,2.43.33,1.14.64,2.32C87.23,214.18,87.56,214.88,86.54,215.55Z"/><path class="cls-5" d="M94.91,222.37c-1.56,1-2.6,1.14-4.16.12-1-.67.2-1.61.2-2.83s-.34-1.21-.34-2.43.18-1.22.18-2.44-1-2.06,0-2.72a3.12,3.12,0,0,1,4.1,0c1,.66-.53,1.49-.53,2.71s.6,1.21.6,2.43-.56,1.26-.25,2.44C95.12,221.09,95.93,221.7,94.91,222.37Z"/><path class="cls-5" d="M78,228.62c-1.56,1-1.89,1.38-3.45.36-1-.66-.22-1.18-.22-2.4s.2-1.21.2-2.43.41-1.22.41-2.44-1.22-1.44-.2-2.11c1.56-1,2.06-1.51,3.62-.49,1,.67-.17,1.38-.17,2.6s.39,1.21.39,2.43a7.72,7.72,0,0,0,.13,2.35C79,227.6,79.05,228,78,228.62Z"/></svg>