<svg xmlns="http://www.w3.org/2000/svg" viewBox="0 0 408.76 398.22"><defs><style>.cls-1{fill:#312b4e;}</style></defs><g id="레이어_2" data-name="레이어 2"><path class="cls-1" d="M384.31,199.21C384.46,298.54,303,379.77,203,379.07c-98.88-.7-180.69-82.45-178.53-183.88,2.07-97,81.05-174.46,176.84-176C302.76,17.53,384.65,99.94,384.31,199.21ZM65,199c-.22,76.89,63,140.46,141.27,139.49,75.88-.95,139.16-63.83,137.45-142.65-1.64-75-63.87-137.51-142.1-136.07C126.27,61.16,65.05,123,65,199Z"/><path class="cls-1" d="M204.37,304.06c-56.59.47-104.17-46.32-105-102.91a105,105,0,1,1,209.93-3.76C310.31,256.79,262.05,304.33,204.37,304.06Zm52.87-23.2c10.79-6.64,22.66-18.52,29-28.92.3-.48,1.42-1.15-.22-1.6s-2-1.84-1.18-3.2,2.07-1.29,3.28-.37c.3.22.64.88,1,.31.5-.9,1.68-1.6,1-3-.84-1.62-.24-2.78,1.5-3.14a1.73,1.73,0,0,0,1.38-1.1c1.35-3,2.6-6,3.65-9,.25-.74.35-1.25-.52-1.73a2.14,2.14,0,0,1,1.17-4c1,.15,1.19-.32,1.36-1.09.54-2.41,1.18-4.8,1.65-7.23.26-1.36.88-2.76.31-4.15-.44-1.05,0-1.8.3-2.77.75-2.54,1.82-5.18-.21-7.72a1.89,1.89,0,0,1,.27-2.68c.34-.34,1-.46.93-1-.32-2.16.56-4.51-1-6.49a2,2,0,0,1-.14-2.72,2,2,0,0,0,.51-1.55A79.45,79.45,0,0,0,299,176.18c-1.54.84-3.08,1.27-3.82-.61s.2-2.82,2.13-2.94c1-.06.59-.77.42-1.25-1.12-3.22-2.28-6.43-3.41-9.65-.34-.95-.72-1.34-1.84-.78a2.09,2.09,0,0,1-1.72-3.79c1.35-.57,1-1.22.52-2.11a105.2,105.2,0,0,0-7.65-12.45c-.85-1.15-1.45-2.49-3.21-2.74-1-.13-1.17-1.18-1.29-2.18-.19-1.62-.86-2.92-2.88-2.85-1.58.06-2.3-.84-2.31-2.38,0-2.09-.83-2.9-3-2.9-1.37,0-2.25-.62-2.23-2,0-2.26-1.22-3.06-3.22-3.21a1.93,1.93,0,0,1-2-1.78,2.09,2.09,0,0,0-1-1.55,103.58,103.58,0,0,0-14.4-8.91c-.74-.38-1.21-.55-1.63.42a2.12,2.12,0,1,1-3.9-1.66c.4-.91.12-1.26-.67-1.59a91,91,0,0,0-9.78-3.5c-.91-.27-1.19-.05-1.3.92a1.9,1.9,0,0,1-2.56,1.79,1.94,1.94,0,0,1-1.4-3c.46-1,.16-1.21-.7-1.37-1.73-.33-3.45-.81-5.2-1-2.51-.27-5-1.58-7.58.07-.58.38-1.32-.1-1.93-.55-1.76-1.31-5.83-1.24-7.59.12-.76.57-1.75.87-2.33.22-1.32-1.5-2.93-1.18-4.5-1-3,.34-6,1.13-9.12,1.2-2.77.06-5.51,1.12-8.28,1.7-.84.18-1.39.4-1.25,1.5a2.13,2.13,0,0,1-3.9,1.19c-.5-.88-1-1-1.89-.59-2.93,1.22-5.89,2.39-8.84,3.59-.52.21-1,.44-1.15,1.11-.45,2.08-1.58,2.62-3.57,1.67-1-.49-1.87.49-2.58,1.07s.37.85.58,1.28c.57,1.2.49,2.27-.66,3a2.06,2.06,0,0,1-3.09-.77c-.25-.39,0-1-.63-1.21-10.15,5.59-27,22.37-29.78,29.64,1.43-.15,2.61.17,2.94,1.74a2,2,0,0,1-1.15,2.28c-1.8,1-2.56-.63-3.53-1.65-1,1.44-2.08,2.52-.72,4.38a1.68,1.68,0,0,1-1.48,2.6c-2-.07-2.36,1.14-2.91,2.4-1.09,2.53-2.14,5.08-3.19,7.63-.31.76-.84,1.52.73,1.67a1.89,1.89,0,0,1,1.64,2.66,1.85,1.85,0,0,1-2.82,1.3c-1.45-.82-1.51.15-1.73,1-.7,2.88-1.36,5.77-2.06,8.65a2.15,2.15,0,0,0,.83,2.71,1.69,1.69,0,0,1,0,2.9c-2.59,1.18-2,3.4-2.25,5.36-.14.94,0,1.56,1.23,1.66a1.89,1.89,0,0,1,1.71,2.09,1.86,1.86,0,0,1-1.81,2c-1.32,0-1.54.64-1.45,1.72a24.35,24.35,0,0,1,.14,3c0,1.14.17,1.79,1.55,1.82a1.75,1.75,0,0,1,1.55,1.77,2.11,2.11,0,0,1-1.33,2.19c-.42.22-1,0-1.29.57-.37.75.6,5.48,1.33,6,1.45,1,1.82,2.14.64,3.53a1.69,1.69,0,0,0-.31,1.75c.86,3.06,1.72,6.12,2.56,9.19a1.38,1.38,0,0,0,1.42,1.19c2.38.28,2.91,2,1.24,3.81a1.17,1.17,0,0,0-.33,1.46,65,65,0,0,0,4.7,9.72,15.44,15.44,0,0,1,2.33,4.09c.22.76.52,1.93,1.84,2,2.88.14,3.39.83,2.41,3.42-.48,1.28.62,1.75,1.08,2.51.56.94.86-.09,1.23-.33a2,2,0,0,1,2.87.19,1.89,1.89,0,0,1-.11,3c-1.06.82-.89,1.4-.05,2.13.52.46.76,1.2,1.57,1.47.52-1.08,1.11-2.15,2.56-2a2,2,0,0,1,1.78,1.59c.49,1.78-.9,2.36-2.28,3,1.23,1,1.89,2.19,3.19,2.84.45-1.29,1-2.36,2.54-2.21a2,2,0,0,1,1.83,1.54c.41,1.65-.74,2.38-2.12,3,.42.39.66.64.92.85,1,.82,1.81,2.32,3.24.3.6-.84,1.87-.59,2.66.19a1.82,1.82,0,0,1,.2,2.68c-1.14,1.06-.38,1.42.37,2a1.81,1.81,0,0,0,2.25.23c1.65-.8,3.21.18,3,1.93a1.89,1.89,0,0,0,1.52,2.34c1.93.55,3.35,1.84,5,2.86a71.12,71.12,0,0,0,9,4.29c.69.31,1.27.56,1.78-.33a1.8,1.8,0,0,1,2.39-.75,1.82,1.82,0,0,1,1.38,1.92c-.13,1.16.52,1.46,1.4,1.7,2.79.76,5.59,1.53,8.37,2.32a2.47,2.47,0,0,0,2.73-.42,1.56,1.56,0,0,1,2.45.1c1.37,2.29,3.67,1.62,5.62,2.08.87.2,1.41.08,1.6-1a1.91,1.91,0,0,1,2.2-1.58,1.81,1.81,0,0,1,1.83,1.75c0,1.41.86,1.41,1.8,1.44s2,0,3,0,1.57-.13,1.62-1.32a1.94,1.94,0,0,1,2.17-1.88,2.09,2.09,0,0,1,2.06,1.8c.08.38-.16.85.34,1.13,1.08.6,5.42-.53,6-1.6,1-1.61,2.36-1.87,3.62-.48.59.65,1.07,1,1.95.81,3.23-.78,6.47-1.52,9.69-2.31.74-.17,1.3-.36.68-1.41a2.08,2.08,0,1,1,3.85-1.41c.2,1.46.85,1.13,1.68.78,2.93-1.23,5.85-2.49,8.79-3.7.93-.39,1.13-1,1.11-2,0-1.56,1.57-2.76,2.7-1.95,2,1.46,3.14.15,4.67-.85-1.38-.71-2.61-1.37-2.05-3.07a2,2,0,0,1,2.07-1.48C257,277.78,257.23,279.15,257.24,280.86Z"/><path class="cls-1" d="M293.14,294.13c.85-2.27,2.53-3.71,4-5.28,9.56-10.26,16.36-22.25,22.17-34.91,6.6-14.38,8.55-29.61,9-45.2.46-14.33-1-28.39-5.58-42-10-29.83-29-52.52-55.58-69a128.8,128.8,0,0,0-51.07-18.43,102.14,102.14,0,0,0-15.63-1.08,6.44,6.44,0,0,1-4.22-1.1,4.93,4.93,0,0,1-1.67-5.33,4.67,4.67,0,0,1,4.66-3.34,109.06,109.06,0,0,1,17.13,1.1c43,6.31,75.77,28.29,97.89,65.56,14.23,24,19.59,50.25,17.13,78-2.42,27.43-12.61,51.7-30.07,72.93-2.07,2.51-4.33,4.85-6.52,7.26A1.69,1.69,0,0,1,293.14,294.13Z"/><path class="cls-1" d="M111.81,106.94c-.08,1.56-1.1,2.54-2,3.51-7.44,7.76-13.32,16.61-18.57,26-9.83,17.52-14,36.36-14.31,56.31-.23,13.7,1,27.12,5.16,40.19,7.73,24.45,22,44.5,41.86,60.47,23.83,19.13,51,29.27,81.73,29.65,3.22,0,5.23,1.89,5.24,4.83s-2.17,5-5.64,4.92c-19.81-.22-38.82-4.25-56.53-13.14-39.46-19.81-64.55-51.29-72.85-94.72-8-42,2.47-79.73,30.36-112.41A36.35,36.35,0,0,1,111.81,106.94Z"/><path class="cls-1" d="M168.17,180.51c.87-1.95,2.4-3.11.91-5.24-.93-1.34.82-2.87,2.69-2.52a2.08,2.08,0,0,0,2.58-2.37c-.29-2.41.54-3.2,2.92-2.8A1.91,1.91,0,0,0,179.5,165a2.17,2.17,0,0,1,.86-2.6,1.83,1.83,0,0,1,2.53.19c.88,1,1.56.71,2.5.17a34,34,0,0,1,6.38-2.83c1.54-.52,3.27-.64,4.11-2.53.38-.85,1.57-.91,2.46-.32,2.64,1.76,5.38.77,8,.13,1.18-.29,2-.51,3.09.29,1.71,1.25,3.93.89,5.87,1.51.64.21.74-.41,1-.86a2.05,2.05,0,0,1,2.58-1.3,2,2,0,0,1,1.51,2.44c-.38,1.32.41,1.58,1.28,2a41.18,41.18,0,0,1,20.84,20.4c.48,1,.82,1.65,2.13,1.45a1.89,1.89,0,0,1,2,1.55,1.81,1.81,0,0,1-.79,2.23c-1.11.57-1,1.23-.73,2.22a30.92,30.92,0,0,1,1,13.72,3.47,3.47,0,0,0,.34,2.46,1.6,1.6,0,0,1-.09,2c-1.8,1.68-1.66,4.14-2.65,6.13-.66,1.32.24,1.12,1,1.19a2,2,0,0,1,1.89,1.74,2,2,0,0,1-.93,2.19,2.41,2.41,0,0,1-2.41,0c-.55-.2-.64-1.51-1.35-.81a3,3,0,0,0-1.11,2.62c.58,3.06.57,3-2.45,3.71a2.89,2.89,0,0,0-2.17,2.58,2.69,2.69,0,0,1-2.54,2.77c-1.41.28-2.84,1.05-2.87,3.07a1.91,1.91,0,0,1-2.77,1.92,2.73,2.73,0,0,0-2.51.45c-.89.47-1.06.75-.34,1.65a1.89,1.89,0,0,1-.7,3,1.93,1.93,0,0,1-3-1.24c-.35-1.12-.76-1-1.63-.7a40.59,40.59,0,0,1-24.72,1.57,2.38,2.38,0,0,0-2,.29,1.92,1.92,0,0,1-3-.82,3.91,3.91,0,0,0-2.28-2,41.15,41.15,0,0,1-20.76-21.13c-.44-1-.81-1.78-2.08-2.1a2,2,0,0,1-.92-3.24,2.84,2.84,0,0,0,.44-2.73,38.45,38.45,0,0,1-.66-12.2c.16-1.46.5-2.92-.2-4.37a1.44,1.44,0,0,1,.33-1.6c2-2,1.9-5,3.56-7.51-1.93.49-3.5.54-3.9-1.51a1.9,1.9,0,0,1,1.62-2.35C167.05,177.58,167.68,178.76,168.17,180.51Zm37.08,57.72a39.14,39.14,0,0,0,38.87-40.46c-.42-20.78-18.7-38.28-39.44-37.77-22.15.54-39.27,18.26-38.79,40.13C166.36,221.19,184.39,238.64,205.25,238.23Z"/><path class="cls-1" d="M184.56,285.05c.25-1.23.83-2.19,2.2-2.16a2.15,2.15,0,1,1,0,4.29C185.46,287.19,184.78,286.3,184.56,285.05Z"/><path class="cls-1" d="M213.11,114c-1.57-.1-2.33-.91-2.26-2.33a2,2,0,0,1,2.16-2.1,2.09,2.09,0,0,1,2.3,2.2A2.17,2.17,0,0,1,213.11,114Z"/><path class="cls-1" d="M189,117a2.08,2.08,0,0,1-2.2,2.08,2.12,2.12,0,1,1,0-4.24A2.09,2.09,0,0,1,189,117Z"/><path class="cls-1" d="M186.9,104.37a2,2,0,0,1,2,2.09,2,2,0,0,1-2.13,2.13,2,2,0,0,1-2.14-2.13C184.64,105.14,185.41,104.4,186.9,104.37Z"/><path class="cls-1" d="M120.69,216.75c-.18,1.33-.9,2.18-2.21,2.16a2,2,0,0,1-2.11-2.19,2,2,0,0,1,2.18-2.1A2.11,2.11,0,0,1,120.69,216.75Z"/><path class="cls-1" d="M228.9,282.86a2.08,2.08,0,0,1,2,2.28,2,2,0,0,1-2.21,2,2,2,0,0,1-2-2.24A2.1,2.1,0,0,1,228.9,282.86Z"/><path class="cls-1" d="M146.9,200.84c-.13,1.52-.85,2.28-2.18,2.26a2.11,2.11,0,1,1,.11-4.21A1.93,1.93,0,0,1,146.9,200.84Z"/><path class="cls-1" d="M286.56,187.4a2.15,2.15,0,1,1,2.13-2.21C288.75,186.55,287.9,187.22,286.56,187.4Z"/><path class="cls-1" d="M186.75,272.37c1.5.16,2.22,1,2.16,2.24a1.92,1.92,0,0,1-2.12,2.08,2.16,2.16,0,0,1,0-4.32Z"/><path class="cls-1" d="M139.53,151.56a2.06,2.06,0,0,1,2.12,2.14,2,2,0,0,1-2.11,2.14,1.92,1.92,0,0,1-2.12-2.1A2,2,0,0,1,139.53,151.56Z"/><path class="cls-1" d="M194.21,153.71c-.16,1.23-.74,2.16-2.11,2.15a2.13,2.13,0,1,1-.12-4.25C193.32,151.56,194,152.39,194.21,153.71Z"/><path class="cls-1" d="M228.72,114.81c1.37.11,2.18.81,2.19,2.13a2.11,2.11,0,1,1-4.22.06A2,2,0,0,1,228.72,114.81Z"/><path class="cls-1" d="M278.26,153.51c-.16,1.41-.77,2.3-2.11,2.34a2.13,2.13,0,0,1-.16-4.26A2.19,2.19,0,0,1,278.26,153.51Z"/><path class="cls-1" d="M255.14,219c-1.27-.21-2.23-.82-2.23-2.16a2.14,2.14,0,0,1,4.27-.11C257.22,218,256.36,218.71,255.14,219Z"/><path class="cls-1" d="M146.9,158.91c-.07,1.31-.7,2.17-2.05,2.21a2.15,2.15,0,0,1-.17-4.3A2.07,2.07,0,0,1,146.9,158.91Z"/><path class="cls-1" d="M186.68,156.8a2.12,2.12,0,0,1,2.26,2.16,2.16,2.16,0,0,1-4.31,0A2.1,2.1,0,0,1,186.68,156.8Z"/><path class="cls-1" d="M228.86,161.13a2.05,2.05,0,0,1-2.19-2.16,2,2,0,0,1,2.13-2.16,2,2,0,0,1,2.11,2.16A2,2,0,0,1,228.86,161.13Z"/><path class="cls-1" d="M118.4,172.64a2,2,0,0,1,2.23,2.05,2,2,0,0,1-2.07,2.19,2,2,0,0,1-2.19-2.09A2,2,0,0,1,118.4,172.64Z"/><path class="cls-1" d="M192.36,109.64a2,2,0,0,1,1.77,2.36,1.94,1.94,0,0,1-2.36,1.83,2.12,2.12,0,1,1,.59-4.19Z"/><path class="cls-1" d="M191.87,292.46a2.09,2.09,0,0,1-2-2.26,2,2,0,0,1,2.23-2,2,2,0,0,1,2,2.21C194.11,291.72,193.24,292.36,191.87,292.46Z"/><path class="cls-1" d="M123.6,213.67a2.11,2.11,0,0,1-2-2.27,2.14,2.14,0,0,1,4.27.23C125.86,213,124.94,213.58,123.6,213.67Z"/><path class="cls-1" d="M141.67,206.27a2.07,2.07,0,0,1-2.15,2.11,2.12,2.12,0,0,1,0-4.23C140.89,204.14,141.51,205,141.67,206.27Z"/><path class="cls-1" d="M234,124.37a2,2,0,0,1-2-2.12,2,2,0,0,1,2.08-2.14,2,2,0,0,1,2.15,2.1A2,2,0,0,1,234,124.37Z"/><path class="cls-1" d="M270.77,198.85a2.09,2.09,0,0,1,2.18,2.07,2,2,0,0,1-2.06,2.17,1.92,1.92,0,0,1-2.18-2A2,2,0,0,1,270.77,198.85Z"/><path class="cls-1" d="M181.56,292.45a2.08,2.08,0,0,1-2.16-2.17,2,2,0,0,1,2.13-2.13,1.94,1.94,0,0,1,2.1,2.13A2.07,2.07,0,0,1,181.56,292.45Z"/><path class="cls-1" d="M141.69,216.5c-.08,1.49-.78,2.37-2.06,2.42a2,2,0,0,1-2.21-2.07,2,2,0,0,1,2-2.23A2.11,2.11,0,0,1,141.69,216.5Z"/><path class="cls-1" d="M157.42,222c-.16,1.35-.87,2.14-2.21,2.11a2,2,0,0,1-2.12-2.16,2,2,0,0,1,2.21-2.09C156.66,219.88,157.27,220.77,157.42,222Z"/><path class="cls-1" d="M167.93,127.5a2,2,0,0,1-2.23,2.05,1.89,1.89,0,0,1-2-2.16,2,2,0,0,1,2.18-2.07A2.05,2.05,0,0,1,167.93,127.5Z"/><path class="cls-1" d="M186.63,240.94c1.43,0,2.24.71,2.27,2a2,2,0,0,1-2.05,2.19,2,2,0,0,1-2.21-2.06A1.93,1.93,0,0,1,186.63,240.94Z"/><path class="cls-1" d="M270.75,188.37a2,2,0,0,1,2.18,2,2.11,2.11,0,1,1-4.21.19A2,2,0,0,1,270.75,188.37Z"/><path class="cls-1" d="M113.29,224.14a2,2,0,0,1-2.16-2.11,2,2,0,0,1,2.09-2.15,1.93,1.93,0,0,1,2.13,2.08A2,2,0,0,1,113.29,224.14Z"/><path class="cls-1" d="M283.44,179.85c-.07,1.48-.8,2.31-2.1,2.3a2,2,0,0,1-2.16-2.13,2,2,0,0,1,2.12-2.12A2,2,0,0,1,283.44,179.85Z"/><path class="cls-1" d="M181.49,250.48c-1.24-.25-2.1-.91-2.08-2.24a2.11,2.11,0,0,1,4.22.08C183.61,249.66,182.76,250.29,181.49,250.48Z"/><path class="cls-1" d="M262.45,222a2,2,0,0,1-2.12,2.08,2.11,2.11,0,0,1-.06-4.22A2,2,0,0,1,262.45,222Z"/><path class="cls-1" d="M152.18,216.76a2.05,2.05,0,0,1-2.13,2.14,2,2,0,0,1-2.14-2.13,1.94,1.94,0,0,1,2.09-2.15A2.06,2.06,0,0,1,152.18,216.76Z"/><path class="cls-1" d="M249.83,129.58a2.13,2.13,0,0,1-.11-4.25,2,2,0,0,1,2.2,2C252,128.73,251.22,129.44,249.83,129.58Z"/><path class="cls-1" d="M213,288.11a2,2,0,0,1,2.09,2.12,1.93,1.93,0,0,1-2,2.18,2,2,0,0,1-2.19-2.08A2.09,2.09,0,0,1,213,288.11Z"/><path class="cls-1" d="M294,169.34c-.12,1.29-.71,2.2-2.06,2.25a2.12,2.12,0,1,1-.22-4.24A2.12,2.12,0,0,1,294,169.34Z"/><path class="cls-1" d="M178.47,253.6c-.23,1.27-.91,2.09-2.26,2a2,2,0,0,1-2-2.21,1.92,1.92,0,0,1,2.2-2A2.14,2.14,0,0,1,178.47,253.6Z"/><path class="cls-1" d="M223.43,292.46a2.12,2.12,0,0,1-2-2.22,2,2,0,0,1,2.18-2.08,2,2,0,0,1,2.09,2.16C225.65,291.65,224.78,292.32,223.43,292.46Z"/><path class="cls-1" d="M218.33,287.22c-1.29-.17-2.15-.8-2.15-2.16a2.12,2.12,0,0,1,4.24-.05A2.12,2.12,0,0,1,218.33,287.22Z"/><path class="cls-1" d="M160.56,219a2.15,2.15,0,0,1-2.13-2.17,1.93,1.93,0,0,1,2-2.17,2,2,0,0,1,2.18,2.09C162.7,218,161.83,218.73,160.56,219Z"/><path class="cls-1" d="M176.2,282.84a2.15,2.15,0,0,1,2.22,2.06,2.14,2.14,0,1,1-4.27.18A2.12,2.12,0,0,1,176.2,282.84Z"/><path class="cls-1" d="M123.72,224.15a2,2,0,0,1-2.09-2.1,2,2,0,0,1,2.1-2.16,1.91,1.91,0,0,1,2.16,2.06A2.06,2.06,0,0,1,123.72,224.15Z"/><path class="cls-1" d="M267.73,216.74a2.12,2.12,0,0,1-2.17,2.17,2,2,0,0,1-2.09-2.18,1.92,1.92,0,0,1,2.12-2.1A2.07,2.07,0,0,1,267.73,216.74Z"/><path class="cls-1" d="M167.93,285.07a2.09,2.09,0,0,1-2.2,2.11,2.15,2.15,0,0,1,.08-4.3C167.15,282.89,167.78,283.8,167.93,285.07Z"/><path class="cls-1" d="M265.65,155.89a2,2,0,0,1-2.18-2.08,2.1,2.1,0,1,1,4.2-.15A2,2,0,0,1,265.65,155.89Z"/><path class="cls-1" d="M223.45,151.55a2.12,2.12,0,0,1,2.22,2.12,2.15,2.15,0,0,1-4.29.13C221.32,152.46,222.2,151.78,223.45,151.55Z"/><path class="cls-1" d="M288.7,216.29c-.07,1.64-.7,2.56-2,2.62a2,2,0,0,1-2.23-2,2,2,0,0,1,2-2.25A2.07,2.07,0,0,1,288.7,216.29Z"/><path class="cls-1" d="M150.19,155.91c-1.46-.12-2.27-.81-2.3-2.14a2,2,0,0,1,2.09-2.16,2,2,0,0,1,2.16,2.09C152.2,155.09,151.29,155.68,150.19,155.91Z"/><path class="cls-1" d="M297,214.61a2,2,0,0,1,2.17,2.1,2,2,0,0,1-2,2.2,2,2,0,0,1-2.18-2.09A2.08,2.08,0,0,1,297,214.61Z"/><path class="cls-1" d="M220.44,264.05c-.16,1.37-.88,2.13-2.22,2.06a1.91,1.91,0,0,1-2-2.17,2,2,0,0,1,2.2-2.05A2,2,0,0,1,220.44,264.05Z"/><path class="cls-1" d="M233.9,109.57c1.43.1,2.28.83,2.3,2.11a2,2,0,0,1-2.11,2.16,1.93,1.93,0,0,1-2.14-2.07A2,2,0,0,1,233.9,109.57Z"/><path class="cls-1" d="M181.55,277.63c1.29.14,2.11.77,2.09,2.15a2.13,2.13,0,1,1-4.25,0C179.4,278.45,180.24,277.78,181.55,277.63Z"/><path class="cls-1" d="M176.21,140.15a2.08,2.08,0,0,1-2-2.26,1.94,1.94,0,0,1,2.2-2,2,2,0,0,1,2.06,2.21C178.4,139.4,177.49,140,176.21,140.15Z"/><path class="cls-1" d="M152.18,227.31a2,2,0,0,1-2.19,2.05,2.13,2.13,0,0,1,.07-4.25A2.08,2.08,0,0,1,152.18,227.31Z"/><path class="cls-1" d="M120.69,227.32a2.1,2.1,0,0,1-2.27,2,1.93,1.93,0,0,1-2-2.18,2.05,2.05,0,0,1,2.22-2.07A2.15,2.15,0,0,1,120.69,227.32Z"/><path class="cls-1" d="M210,137.91a2.07,2.07,0,0,1-2.07,2.19,2,2,0,0,1-2.19-2,1.91,1.91,0,0,1,2-2.2A2.1,2.1,0,0,1,210,137.91Z"/><path class="cls-1" d="M281.38,224.15a2,2,0,0,1-2.18-2.05,2,2,0,0,1,2-2.21,1.92,1.92,0,0,1,2.2,2A2,2,0,0,1,281.38,224.15Z"/><path class="cls-1" d="M166,140.13c-1.47-.07-2.32-.71-2.38-2a1.93,1.93,0,0,1,2-2.21,2,2,0,0,1,2.24,2A2.1,2.1,0,0,1,166,140.13Z"/><path class="cls-1" d="M244.5,225.05c1.27.16,2.19.8,2.21,2.12a2,2,0,0,1-2.09,2.17,1.94,1.94,0,0,1-2.19-2A2.13,2.13,0,0,1,244.5,225.05Z"/><path class="cls-1" d="M134,219.84c1.57,0,2.36.79,2.4,2.08a1.91,1.91,0,0,1-2,2.2,1.93,1.93,0,0,1-2.18-2A2.07,2.07,0,0,1,134,219.84Z"/><path class="cls-1" d="M225.72,111.65c-.16,1.3-.81,2.18-2.14,2.2a2,2,0,0,1-2.19-2.08,1.92,1.92,0,0,1,2.09-2.14C224.84,109.58,225.5,110.39,225.72,111.65Z"/><path class="cls-1" d="M165.69,114.8a2.08,2.08,0,0,1,2.21,2.08,2.12,2.12,0,1,1-4.24.17A2.1,2.1,0,0,1,165.69,114.8Z"/><path class="cls-1" d="M251.93,274.4a2.08,2.08,0,0,1-2.1,2.29,2,2,0,0,1-2.15-2.11,2.13,2.13,0,0,1,4.25-.18Z"/><path class="cls-1" d="M249.68,114.79c1.39.14,2.21.84,2.24,2.16a1.94,1.94,0,0,1-2.1,2.13,1.9,1.9,0,0,1-2.15-2.07A2.1,2.1,0,0,1,249.68,114.79Z"/><path class="cls-1" d="M152.18,143.22c-.14,1.22-.73,2.1-2.1,2.12a2,2,0,0,1-2.19-2.05,1.94,1.94,0,0,1,2.08-2.16A2,2,0,0,1,152.18,143.22Z"/><path class="cls-1" d="M194.18,122.29a2.05,2.05,0,0,1-2.26,2.06,2,2,0,0,1-2-2.24,1.92,1.92,0,0,1,2.21-2A2.06,2.06,0,0,1,194.18,122.29Z"/><path class="cls-1" d="M129,219a2.15,2.15,0,0,1-2.09-2.21,2,2,0,0,1,2.11-2.14,2,2,0,0,1,2.11,2.15A2.13,2.13,0,0,1,129,219Z"/><path class="cls-1" d="M294,211.52c-.21,1.22-.79,2.12-2.15,2.11a2,2,0,0,1-2.15-2.11,2,2,0,0,1,2.12-2.12C293.14,209.38,293.81,210.21,294,211.52Z"/><path class="cls-1" d="M262.46,211.53c-.18,1.38-.92,2.17-2.24,2.1a2,2,0,0,1-2-2.2,1.94,1.94,0,0,1,2.2-2C261.76,209.44,262.34,210.33,262.46,211.53Z"/><path class="cls-1" d="M251.94,211.52a2,2,0,0,1-2.13,2.11,2.11,2.11,0,1,1,0-4.22C251.16,209.39,251.82,210.19,251.94,211.52Z"/><path class="cls-1" d="M144.57,213.66a2,2,0,0,1-1.92-2.24,2.12,2.12,0,1,1,4.23.21C146.85,213,146,213.61,144.57,213.66Z"/><path class="cls-1" d="M167.94,274.49c-.19,1.31-.87,2.19-2.17,2.18a2,2,0,0,1-2.11-2.14,2,2,0,0,1,2.12-2.11C167.12,272.39,167.74,273.29,167.94,274.49Z"/><path class="cls-1" d="M136.4,211.57a2,2,0,0,1-2.2,2.05,1.9,1.9,0,0,1-2-2.15,2,2,0,0,1,2.16-2.06C135.7,209.43,136.29,210.3,136.4,211.57Z"/><path class="cls-1" d="M215.16,122.26a2,2,0,0,1-2.2,2.09,2.13,2.13,0,1,1,2.2-2.09Z"/><path class="cls-1" d="M152.17,206a2.1,2.1,0,0,1-2.08,2.36,2.13,2.13,0,0,1-.15-4.26A2.06,2.06,0,0,1,152.17,206Z"/><path class="cls-1" d="M118.48,235.59c1.3.16,2.17.82,2.17,2.15a2,2,0,0,1-2.12,2.14,2,2,0,0,1-2.15-2.09C116.34,236.42,117.27,235.83,118.48,235.59Z"/><path class="cls-1" d="M149.89,235.6c1.3.14,2.22.7,2.26,2.07a2,2,0,0,1-2,2.21,2,2,0,0,1-2.2-2A2.1,2.1,0,0,1,149.89,235.6Z"/><path class="cls-1" d="M244.51,235.59c1.27.19,2.18.81,2.19,2.15a2.14,2.14,0,0,1-4.28,0C242.39,236.44,243.28,235.81,244.51,235.59Z"/><path class="cls-1" d="M210,148.59c-.26,1.35-1,2.15-2.33,2a2,2,0,0,1-2-2.3,2,2,0,0,1,2.28-2A2.11,2.11,0,0,1,210,148.59Z"/><path class="cls-1" d="M249.72,261.83a2.12,2.12,0,0,1,2.2,2.09,1.9,1.9,0,0,1-2,2.19,2,2,0,0,1-2.23-2C247.61,262.77,248.43,262.07,249.72,261.83Z"/><path class="cls-1" d="M278.23,237.74c-.15,1.3-.81,2.13-2.14,2.15a2.12,2.12,0,0,1,0-4.24A2.06,2.06,0,0,1,278.23,237.74Z"/><path class="cls-1" d="M199.43,285.16a2.07,2.07,0,0,1-2.24,2,2.15,2.15,0,0,1,.21-4.29C198.71,283,199.36,283.83,199.43,285.16Z"/><path class="cls-1" d="M241.46,264.11a2,2,0,0,1-2.29,2,1.89,1.89,0,0,1-2-2.23,2,2,0,0,1,2.23-2A2.1,2.1,0,0,1,241.46,264.11Z"/><path class="cls-1" d="M155.32,129.57a2,2,0,0,1-2.21-2.11,2,2,0,0,1,2.14-2.15,2,2,0,0,1,2.14,2.14A2,2,0,0,1,155.32,129.57Z"/><path class="cls-1" d="M278.27,195.44c-.13,1.44-.7,2.35-2.08,2.38a2.12,2.12,0,1,1-.23-4.23A2.22,2.22,0,0,1,278.27,195.44Z"/><path class="cls-1" d="M267.69,195.82a2,2,0,0,1-2.19,2,2.12,2.12,0,0,1,.13-4.23A2.08,2.08,0,0,1,267.69,195.82Z"/><path class="cls-1" d="M150.06,193.57c1.24.25,2.12.88,2.07,2.23a2.11,2.11,0,0,1-4.21-.11C147.94,194.36,148.8,193.72,150.06,193.57Z"/><path class="cls-1" d="M120.68,195.87a2.05,2.05,0,0,1-2.31,1.95,1.93,1.93,0,0,1-2-2.23,2,2,0,0,1,2.25-2C120,193.67,120.56,194.6,120.68,195.87Z"/><path class="cls-1" d="M251.94,148.56a2.14,2.14,0,1,1-4.27-.14,1.93,1.93,0,0,1,2.19-2A2,2,0,0,1,251.94,148.56Z"/><path class="cls-1" d="M291.77,192.65a2.09,2.09,0,0,1-2.1-2.18,2.14,2.14,0,0,1,4.27.06C294,191.85,293.1,192.54,291.77,192.65Z"/><path class="cls-1" d="M281.36,188.34a2,2,0,0,1,2.07,2.19,2,2,0,0,1-2.16,2.09,2,2,0,0,1-2.1-2.16A2.05,2.05,0,0,1,281.36,188.34Z"/><path class="cls-1" d="M276.1,183.06c1.33.21,2.16.9,2.1,2.25a2.12,2.12,0,0,1-4.24-.15A2.06,2.06,0,0,1,276.1,183.06Z"/><path class="cls-1" d="M160.43,183.07a2.06,2.06,0,0,1,2.2,2.1,1.91,1.91,0,0,1-2,2.17,2,2,0,0,1-2.2-2C158.35,184,159.22,183.31,160.43,183.07Z"/><path class="cls-1" d="M152.17,248.25c-.13,1.25-.76,2.14-2.09,2.16a2.11,2.11,0,1,1-.12-4.22C151.33,246.13,152,246.92,152.17,248.25Z"/><path class="cls-1" d="M207.74,129.57a1.94,1.94,0,0,1-2.05-2.13,2.12,2.12,0,1,1,4.24,0A2,2,0,0,1,207.74,129.57Z"/><path class="cls-1" d="M246.75,258.86c-.26,1.25-.94,2.1-2.28,2a2.12,2.12,0,1,1,.18-4.23C246,256.72,246.6,257.59,246.75,258.86Z"/><path class="cls-1" d="M260.19,182.19c-1.2-.27-2.05-.92-2-2.27a2.1,2.1,0,1,1,4.2.16A2.13,2.13,0,0,1,260.19,182.19Z"/><path class="cls-1" d="M183.69,153.67a2.07,2.07,0,0,1-2.13,2.18,2.13,2.13,0,1,1-.08-4.25A2.08,2.08,0,0,1,183.69,153.67Z"/><path class="cls-1" d="M257.21,132.48c-.07,1.45-.72,2.3-2,2.35a2,2,0,0,1-2.25-2,2,2,0,0,1,2-2.21A2,2,0,0,1,257.21,132.48Z"/><path class="cls-1" d="M225.71,258.67c-.13,1.31-.76,2.16-2.11,2.21a2.12,2.12,0,1,1-.14-4.24A2.12,2.12,0,0,1,225.71,258.67Z"/><path class="cls-1" d="M213,151.56a2,2,0,0,1,2.13,2.13,1.91,1.91,0,0,1-2.06,2.17,2,2,0,0,1-2.2-2.09C210.85,152.42,211.74,151.77,213,151.56Z"/><path class="cls-1" d="M251.94,180c-.16,1.28-.82,2.14-2.14,2.14a2,2,0,0,1-2.11-2.14,1.92,1.92,0,0,1,2.1-2.11A2,2,0,0,1,251.94,180Z"/><path class="cls-1" d="M157.43,180c-.18,1.43-.94,2.22-2.24,2.17a2,2,0,0,1-2.07-2.21,2,2,0,0,1,2.21-2A2.06,2.06,0,0,1,157.43,180Z"/><path class="cls-1" d="M244.65,151.56a2,2,0,0,1,2,2.12,2,2,0,0,1-2.11,2.17,1.93,1.93,0,0,1-2.17-2.07C242.4,152.46,243.21,151.72,244.65,151.56Z"/><path class="cls-1" d="M254.91,155.88a2.07,2.07,0,0,1-2-2.21,2,2,0,0,1,2.22-2.07,2,2,0,0,1,2.08,2.18C257.14,155.13,256.29,155.79,254.91,155.88Z"/><path class="cls-1" d="M144.59,177.86c1.41.08,2.22.74,2.28,2.07a1.94,1.94,0,0,1-2,2.22,2,2,0,0,1-2.21-2.08A2,2,0,0,1,144.59,177.86Z"/><path class="cls-1" d="M215.16,132.67a2,2,0,0,1-2.19,2.16,2,2,0,0,1-2.06-2.18,2,2,0,0,1,2.21-2.06A2,2,0,0,1,215.16,132.67Z"/><path class="cls-1" d="M286.52,151.53c1.35.22,2.19.91,2.17,2.25a2.13,2.13,0,1,1-4.26-.1A2.1,2.1,0,0,1,286.52,151.53Z"/><path class="cls-1" d="M136.41,179.93c-.19,1.35-.81,2.23-2.16,2.2a2,2,0,0,1-2.06-2.14,1.9,1.9,0,0,1,2.09-2.08A2,2,0,0,1,136.41,179.93Z"/><path class="cls-1" d="M204.68,258.7c-.15,1.27-.68,2.2-2.08,2.17a1.94,1.94,0,0,1-2.13-2.08,1.88,1.88,0,0,1,2-2.13A2,2,0,0,1,204.68,258.7Z"/><path class="cls-1" d="M194.19,248.31c-.2,1.31-.91,2.13-2.23,2.09a2.11,2.11,0,0,1,.12-4.22A2,2,0,0,1,194.19,248.31Z"/><path class="cls-1" d="M160.59,260.9a2,2,0,0,1-2.16-2.09,2.11,2.11,0,1,1,4.21-.09A2,2,0,0,1,160.59,260.9Z"/><path class="cls-1" d="M236.27,248.19c-.22,1.36-.91,2.21-2.22,2.23a2,2,0,0,1-2.1-2.14,1.94,1.94,0,0,1,2.11-2.11C235.47,246.12,236,247.12,236.27,248.19Z"/><path class="cls-1" d="M281.33,255.65c-1.4-.14-2.18-.88-2.15-2.19a2,2,0,0,1,2.17-2.07,1.92,1.92,0,0,1,2.06,2.16A2,2,0,0,1,281.33,255.65Z"/><path class="cls-1" d="M265.55,250.43a2,2,0,0,1-2.08-2.18,2.1,2.1,0,0,1,4.2.07A2.07,2.07,0,0,1,265.55,250.43Z"/><path class="cls-1" d="M170.94,130.58c1.29.06,2.14.65,2.18,2a2,2,0,0,1-2,2.22,1.92,1.92,0,0,1-2.18-2A2,2,0,0,1,170.94,130.58Z"/><path class="cls-1" d="M262.48,127.49a2.06,2.06,0,0,1-2.27,2.06,1.91,1.91,0,0,1-2-2.19,1.94,1.94,0,0,1,2.19-2A2.12,2.12,0,0,1,262.48,127.49Z"/><path class="cls-1" d="M249.83,167.29c1.23.24,2.14.82,2.08,2.2a1.94,1.94,0,0,1-2.11,2.11,2,2,0,0,1-2.12-2.14C247.67,168.11,248.59,167.52,249.83,167.29Z"/><path class="cls-1" d="M197.31,255.67a2.09,2.09,0,0,1-2.14-2.14,2,2,0,0,1,2.1-2.15,2,2,0,0,1,2.12,2.11C199.43,254.83,198.61,255.51,197.31,255.67Z"/><path class="cls-1" d="M270.82,156.78a2.15,2.15,0,0,1,2.1,2.11,2.11,2.11,0,0,1-4.21.16A2.11,2.11,0,0,1,270.82,156.78Z"/><path class="cls-1" d="M239.32,251.33c1.27.18,2.11.84,2.1,2.19a1.94,1.94,0,0,1-2.13,2.11,1.91,1.91,0,0,1-2.1-2.12A2.07,2.07,0,0,1,239.32,251.33Z"/><path class="cls-1" d="M162.69,132.67c-.15,1.27-.76,2.17-2.12,2.17a2.12,2.12,0,0,1-.1-4.24A2.07,2.07,0,0,1,162.69,132.67Z"/><path class="cls-1" d="M286.44,193.53c1.25.2,2.21.72,2.22,2.11a1.89,1.89,0,0,1-2,2.2,2,2,0,0,1-2.21-2C284.39,194.48,285.21,193.8,286.44,193.53Z"/><path class="cls-1" d="M207.72,255.64a2,2,0,0,1-2-2.16,1.93,1.93,0,0,1,2.14-2.08,2.12,2.12,0,1,1-.1,4.24Z"/><path class="cls-1" d="M218.17,251.35a2.09,2.09,0,0,1,2.23,2.06,2.12,2.12,0,0,1-4.23.22A2.06,2.06,0,0,1,218.17,251.35Z"/><path class="cls-1" d="M276,162.07a2.07,2.07,0,0,1,2.2,2.05,2,2,0,0,1-2,2.21,1.94,1.94,0,0,1-2.19-2C273.91,162.94,274.7,162.27,276,162.07Z"/><path class="cls-1" d="M150,162.07c1.27.14,2.14.78,2.15,2.12a2.12,2.12,0,0,1-4.24.06A2,2,0,0,1,150,162.07Z"/><path class="cls-1" d="M160.63,162.08a2,2,0,0,1,2,2.18,2,2,0,0,1-2.15,2.08,1.91,1.91,0,0,1-2.06-2.15C158.44,162.88,159.23,162.17,160.63,162.08Z"/><path class="cls-1" d="M171.1,162.07a2,2,0,0,1,2,2.22,1.92,1.92,0,0,1-2.16,2,2,2,0,0,1-2-2.19C168.93,162.8,169.76,162.13,171.1,162.07Z"/><path class="cls-1" d="M234.07,162.07a2.09,2.09,0,0,1,2.12,2.21,2,2,0,0,1-2.18,2.06,1.92,1.92,0,0,1-2-2.16A2,2,0,0,1,234.07,162.07Z"/><path class="cls-1" d="M246.76,164.24a2.18,2.18,0,0,1-2.22,2.11,1.94,1.94,0,0,1-2.11-2.14,2,2,0,0,1,2.15-2.11A2.13,2.13,0,0,1,246.76,164.24Z"/><path class="cls-1" d="M228.89,251.3a2.15,2.15,0,0,1,2,2.28,1.92,1.92,0,0,1-2.18,2,1.94,1.94,0,0,1-2-2.18C226.72,252.08,227.62,251.47,228.89,251.3Z"/><path class="cls-1" d="M265.7,162.06a2.08,2.08,0,0,1,2,2.24,2,2,0,0,1-2.19,2,1.92,1.92,0,0,1-2-2.2C263.53,162.81,264.34,162.15,265.7,162.06Z"/><path class="cls-1" d="M141.67,164c-.07,1.46-.72,2.29-2.06,2.35a1.94,1.94,0,0,1-2.18-2,1.9,1.9,0,0,1,2-2.2A2.06,2.06,0,0,1,141.67,164Z"/><path class="cls-1" d="M131.19,163.9c-.12,1.65-.89,2.42-2.17,2.45a1.93,1.93,0,0,1-2.1-2.12,2,2,0,0,1,2.1-2.13A2.12,2.12,0,0,1,131.19,163.9Z"/><path class="cls-1" d="M125.91,169.48c-.15,1.24-.77,2.11-2.12,2.1a2,2,0,0,1-2.16-2.06,2,2,0,0,1,2.09-2.16A2.1,2.1,0,0,1,125.91,169.48Z"/><path class="cls-1" d="M118.48,166.41c-1.37-.23-2.2-1-2.12-2.28a2.15,2.15,0,0,1,4.29.2C120.63,165.7,119.66,166.25,118.48,166.41Z"/><path class="cls-1" d="M249.8,255.65a2,2,0,0,1-2.12-2.16,2,2,0,0,1,2.14-2.1,2.13,2.13,0,0,1,0,4.26Z"/><path class="cls-1" d="M188.94,253.58a2.05,2.05,0,0,1-2.19,2,2.12,2.12,0,1,1,0-4.24C188.11,251.39,188.8,252.23,188.94,253.58Z"/><path class="cls-1" d="M165.87,171.62a2,2,0,0,1-2.2-2.08,1.93,1.93,0,0,1,2-2.17,2,2,0,0,1,2.19,2C168,170.76,167.1,171.41,165.87,171.62Z"/><path class="cls-1" d="M152.18,132.42c-.05,1.5-.68,2.36-2,2.42a2,2,0,0,1-2.24-2,1.94,1.94,0,0,1,2-2.23A2,2,0,0,1,152.18,132.42Z"/><path class="cls-1" d="M249.82,156.77c1.27.29,2.16.9,2.11,2.28a2.13,2.13,0,0,1-4.26-.15C247.7,157.55,248.6,156.94,249.82,156.77Z"/><path class="cls-1" d="M262.46,169.63a2.06,2.06,0,0,1-2.27,2,1.93,1.93,0,0,1-2-2.21,2,2,0,0,1,2.22-2A2.11,2.11,0,0,1,262.46,169.63Z"/><path class="cls-1" d="M155.45,255.63a2,2,0,0,1-2.34-2,2.14,2.14,0,1,1,2.34,2Z"/><path class="cls-1" d="M281.43,171.65c-1.48-.18-2.26-.92-2.25-2.22a2.12,2.12,0,1,1,4.24.11A2.06,2.06,0,0,1,281.43,171.65Z"/><path class="cls-1" d="M141.69,132.76a2.09,2.09,0,0,1-2.19,2.07,1.92,1.92,0,0,1-2.09-2.13,1.94,1.94,0,0,1,2.14-2.09A2,2,0,0,1,141.69,132.76Z"/><path class="cls-1" d="M260.43,255.64a2,2,0,0,1-2.24-2,2.12,2.12,0,1,1,4.23-.15A2,2,0,0,1,260.43,255.64Z"/><path class="cls-1" d="M241.44,127.41a2,2,0,0,1-2.07,2.15,1.93,1.93,0,0,1-2.15-2,2,2,0,0,1,2-2.19A2.07,2.07,0,0,1,241.44,127.41Z"/><path class="cls-1" d="M136.42,253.44c-.15,1.27-.73,2.13-2.09,2.17a1.89,1.89,0,0,1-2.13-2,1.92,1.92,0,0,1,2-2.18C135.54,251.34,136.21,252.18,136.42,253.44Z"/><path class="cls-1" d="M276.16,250.47c-1.42-.21-2.2-.9-2.18-2.24a1.92,1.92,0,0,1,2.15-2,2,2,0,0,1,2.07,2.17A2.13,2.13,0,0,1,276.16,250.47Z"/><path class="cls-1" d="M183.67,132.72a2,2,0,0,1-2.17,2.12,2,2,0,0,1-2.11-2.15,2,2,0,0,1,2.16-2.1A2,2,0,0,1,183.67,132.72Z"/><path class="cls-1" d="M160.53,172.65a2.11,2.11,0,0,1,0,4.22,1.92,1.92,0,0,1-2.08-2.11A2,2,0,0,1,160.53,172.65Z"/><path class="cls-1" d="M244.39,246.14a2.08,2.08,0,0,1,2.3,2.06,2.13,2.13,0,0,1-4.25.18A2,2,0,0,1,244.39,246.14Z"/><path class="cls-1" d="M255.4,172.66a1.9,1.9,0,0,1,1.76,2.16,2,2,0,0,1-2.19,2,2,2,0,0,1-2.07-2.19C253,173.43,253.73,172.6,255.4,172.66Z"/><path class="cls-1" d="M165.63,161.13a2,2,0,0,1-2-2.22,2,2,0,0,1,2.18-2.07,2,2,0,0,1,2,2.21C167.86,160.35,167,161.06,165.63,161.13Z"/><path class="cls-1" d="M223.5,250.47c-1.19-.23-2.12-.83-2.11-2.17a2,2,0,0,1,2.13-2.1,1.92,1.92,0,0,1,2.14,2.08C225.68,249.6,224.82,250.28,223.5,250.47Z"/><path class="cls-1" d="M215.15,248.51a1.94,1.94,0,0,1-2.24,1.89,2,2,0,0,1-2-2.25,1.93,1.93,0,0,1,2.25-2C214.5,246.28,215.12,247.13,215.15,248.51Z"/><path class="cls-1" d="M200.44,132.65a2.11,2.11,0,1,1,2.09,2.19A2,2,0,0,1,200.44,132.65Z"/><path class="cls-1" d="M123.61,182.17a2.11,2.11,0,0,1-2-2.23,2.13,2.13,0,0,1,4.25.14A2.09,2.09,0,0,1,123.61,182.17Z"/><path class="cls-1" d="M215.15,258.89a2,2,0,0,1-2.18,2,2.11,2.11,0,1,1,.13-4.22C214.42,256.68,215.11,257.5,215.15,258.89Z"/><path class="cls-1" d="M244.61,281.94a2,2,0,0,1-2.16-2.12,1.93,1.93,0,0,1,2.07-2.14,2,2,0,0,1,2.16,2.09C246.73,281.09,245.88,281.78,244.61,281.94Z"/><path class="cls-1" d="M236.28,153.67c-.23,1.22-.78,2.17-2.14,2.19a2.13,2.13,0,0,1-.13-4.25C235.38,151.53,236,152.46,236.28,153.67Z"/><path class="cls-1" d="M246.75,132.75c-.25,1.31-.94,2.14-2.27,2.08a2,2,0,0,1-2-2.18,2,2,0,0,1,2.22-2C246,130.65,246.6,131.54,246.75,132.75Z"/><path class="cls-1" d="M233.92,260.9c-1.13-.2-2-.72-2-2.15a2.13,2.13,0,0,1,4.25,0C236.19,260.08,235.36,260.82,233.92,260.9Z"/><path class="cls-1" d="M220.42,127.34a2,2,0,0,1-2,2.22,1.94,1.94,0,0,1-2.2-2,2,2,0,0,1,2-2.23A2,2,0,0,1,220.42,127.34Z"/><path class="cls-1" d="M267.7,132.58a2.06,2.06,0,0,1-2.05,2.25,2.11,2.11,0,0,1-.17-4.22A2,2,0,0,1,267.7,132.58Z"/><path class="cls-1" d="M291.64,177.87c1.4.07,2.25.73,2.3,2a2,2,0,0,1-2,2.22,2.14,2.14,0,0,1-.26-4.27Z"/><path class="cls-1" d="M118.51,183.09a2.08,2.08,0,0,1,2.13,2.12,2.13,2.13,0,0,1-4.26,0C116.35,183.91,117.22,183.27,118.51,183.09Z"/><path class="cls-1" d="M233.87,277.63c1.56.13,2.33.95,2.32,2.19a1.93,1.93,0,0,1-2.14,2.09,2,2,0,0,1-2.09-2.15A2,2,0,0,1,233.87,277.63Z"/><path class="cls-1" d="M139.59,183.08c1.21.22,2.08.84,2,2.19a2,2,0,0,1-2.15,2.07,1.91,1.91,0,0,1-2.07-2.14C137.41,183.87,138.26,183.22,139.59,183.08Z"/><path class="cls-1" d="M149.9,183.06c1.39.15,2.24.78,2.24,2.14a2,2,0,0,1-2.1,2.14,1.92,1.92,0,0,1-2.13-2.08A2.1,2.1,0,0,1,149.9,183.06Z"/><path class="cls-1" d="M129.07,151.59a2,2,0,0,1,2,2.17,2.1,2.1,0,1,1-4.2-.08A2,2,0,0,1,129.07,151.59Z"/><path class="cls-1" d="M255.2,183.08a2.11,2.11,0,0,1,2,2.24,2,2,0,0,1-2.21,2,2,2,0,0,1-2.07-2.18C253,183.87,253.81,183.16,255.2,183.08Z"/><path class="cls-1" d="M267.73,185c-.13,1.44-.77,2.29-2.09,2.32a1.92,1.92,0,0,1-2.15-2,2,2,0,0,1,2-2.18C266.89,183.07,267.45,184,267.73,185Z"/><path class="cls-1" d="M255,260.9a2.07,2.07,0,0,1-2.14-2.18,2,2,0,0,1,2.21-2.06,2,2,0,0,1,2.07,2.16A2,2,0,0,1,255,260.9Z"/><path class="cls-1" d="M197.31,125.29a2.08,2.08,0,0,1,2.08,2.12,2.1,2.1,0,0,1-4.2.1C195.15,126.19,195.93,125.46,197.31,125.29Z"/><path class="cls-1" d="M139.45,246.15a2,2,0,0,1,2.19,2.07,2,2,0,0,1-2,2.18,1.94,1.94,0,0,1-2.18-2A2.05,2.05,0,0,1,139.45,246.15Z"/><path class="cls-1" d="M115.38,190.56a2.12,2.12,0,1,1-2-2.17A2,2,0,0,1,115.38,190.56Z"/><path class="cls-1" d="M125.91,190.45a2.07,2.07,0,0,1-2.16,2.17,2.11,2.11,0,0,1,0-4.22A2,2,0,0,1,125.91,190.45Z"/><path class="cls-1" d="M270.76,240.94c1.44.12,2.22.83,2.16,2.16a1.94,1.94,0,0,1-2.17,2,1.91,1.91,0,0,1-2-2.16A1.89,1.89,0,0,1,270.76,240.94Z"/><path class="cls-1" d="M229,240.94a2.11,2.11,0,0,1-.31,4.2,2,2,0,0,1-2-2.2C226.73,241.62,227.55,240.94,229,240.94Z"/><path class="cls-1" d="M157.43,190.45c-.17,1.3-.79,2.16-2.14,2.17a2.12,2.12,0,1,1-.06-4.23A2.1,2.1,0,0,1,157.43,190.45Z"/><path class="cls-1" d="M252,190.16c-.12,1.48-.74,2.4-2.07,2.46a2.13,2.13,0,1,1-.23-4.25A2.1,2.1,0,0,1,252,190.16Z"/><path class="cls-1" d="M262.46,190.54a2.05,2.05,0,0,1-2.24,2.08,1.94,1.94,0,0,1-2-2.2,2,2,0,0,1,2.2-2C261.77,188.42,262.33,189.33,262.46,190.54Z"/><path class="cls-1" d="M186.72,129.58a2.14,2.14,0,1,1,2.2-2.1C188.93,128.81,188.1,129.52,186.72,129.58Z"/><path class="cls-1" d="M155.31,266.14c-1.45-.13-2.22-.88-2.19-2.18a2,2,0,0,1,2.19-2.07,2,2,0,0,1,2.06,2.17A2,2,0,0,1,155.31,266.14Z"/><path class="cls-1" d="M260.23,150.68c-1.27-.26-2.12-.94-2.05-2.28a2.13,2.13,0,0,1,4.25.17C262.38,149.91,261.46,150.51,260.23,150.68Z"/><path class="cls-1" d="M241.46,148.54c-.19,1.36-1,2.15-2.24,2.1a2,2,0,0,1-2-2.23,1.94,1.94,0,0,1,2.2-2A2,2,0,0,1,241.46,148.54Z"/><path class="cls-1" d="M178.48,127.63a2.1,2.1,0,0,1-2.33,1.92,2,2,0,0,1-2-2.23,2,2,0,0,1,2.27-2C177.75,125.39,178.34,126.34,178.48,127.63Z"/><path class="cls-1" d="M141.69,195.52c-.14,1.55-.87,2.3-2.19,2.31a1.91,1.91,0,0,1-2.08-2.12,1.93,1.93,0,0,1,2.12-2.1A2.08,2.08,0,0,1,141.69,195.52Z"/><path class="cls-1" d="M176.25,261.85c1.29.14,2.17.81,2.17,2.12a2.13,2.13,0,0,1-4.25.07A2.06,2.06,0,0,1,176.25,261.85Z"/><path class="cls-1" d="M162.67,195.49c-.09,1.57-.82,2.32-2.14,2.33a1.88,1.88,0,0,1-2.08-2.09,2,2,0,0,1,2.08-2.14A2.11,2.11,0,0,1,162.67,195.49Z"/><path class="cls-1" d="M146.89,243.16a2.13,2.13,0,0,1-4.25-.22,1.93,1.93,0,0,1,2.22-2C146.25,241,146.86,241.8,146.89,243.16Z"/><path class="cls-1" d="M189,264.08a2.06,2.06,0,0,1-2.26,2,1.92,1.92,0,0,1-2-2.17,2,2,0,0,1,2.2-2.06A2.13,2.13,0,0,1,189,264.08Z"/><path class="cls-1" d="M195.14,263.87a2,2,0,0,1,2.24-2,2,2,0,0,1,2,2.22,1.91,1.91,0,0,1-2.2,2C195.79,266.06,195.26,265.16,195.14,263.87Z"/><path class="cls-1" d="M225.7,279.89c-.23,1.26-.89,2.12-2.26,2a2.06,2.06,0,0,1-2.06-2.23,2,2,0,0,1,2.25-2C225,277.7,225.58,278.6,225.7,279.89Z"/><path class="cls-1" d="M283.44,243c-.12,1.46-.87,2.21-2.19,2.17a2.1,2.1,0,1,1,.11-4.2A1.93,1.93,0,0,1,283.44,243Z"/><path class="cls-1" d="M167.93,148.42a2.1,2.1,0,0,1-2.09,2.22,2,2,0,0,1-2.17-2.09,1.94,1.94,0,0,1,2.05-2.19A2,2,0,0,1,167.93,148.42Z"/><path class="cls-1" d="M286.49,235.58c1.27.16,2.16.76,2.19,2.12a2,2,0,0,1-2,2.19,2,2,0,0,1-2.18-2C284.4,236.48,285.27,235.84,286.49,235.58Z"/><path class="cls-1" d="M155.21,146.33a2,2,0,0,1,2.18,2.14,2,2,0,0,1-2.12,2.17,2.16,2.16,0,0,1-.06-4.31Z"/><path class="cls-1" d="M255.19,120.07a2,2,0,0,1,2,2.24,2,2,0,0,1-2.2,2,2,2,0,0,1-2.05-2.23C252.94,120.84,253.82,120.13,255.19,120.07Z"/><path class="cls-1" d="M134.14,150.67a2.07,2.07,0,0,1-2-2.25,2.09,2.09,0,1,1,4.18.14C136.31,149.88,135.49,150.55,134.14,150.67Z"/><path class="cls-1" d="M276.1,141.12a2,2,0,0,1,2.11,2,2,2,0,0,1-2,2.2,1.9,1.9,0,0,1-2.18-2C273.92,142,274.63,141.24,276.1,141.12Z"/><path class="cls-1" d="M265.56,141.12c1.33.11,2.14.82,2.11,2.13a2,2,0,0,1-2.12,2.09,1.91,1.91,0,0,1-2.05-2.13C263.46,141.85,264.28,141.21,265.56,141.12Z"/><path class="cls-1" d="M244.31,120.06c1.46.07,2.31.77,2.38,2.06a2.14,2.14,0,0,1-4.27.21A2.09,2.09,0,0,1,244.31,120.06Z"/><path class="cls-1" d="M291.93,230.37a2,2,0,0,1,2,2.22,2.12,2.12,0,0,1-4.23-.15A2.09,2.09,0,0,1,291.93,230.37Z"/><path class="cls-1" d="M283.44,232.37a2,2,0,0,1-2.06,2.23,2.1,2.1,0,1,1-.14-4.19A2,2,0,0,1,283.44,232.37Z"/><path class="cls-1" d="M120.7,206.24a2.13,2.13,0,0,1-2.13,2.14,2.12,2.12,0,1,1-.11-4.24A2.1,2.1,0,0,1,120.7,206.24Z"/><path class="cls-1" d="M249.74,230.35a2.11,2.11,0,0,1,2.17,2.07,1.9,1.9,0,0,1-2,2.18,1.94,1.94,0,0,1-2.22-2A2.11,2.11,0,0,1,249.74,230.35Z"/><path class="cls-1" d="M223.42,124.39a2.09,2.09,0,0,1-2-2.25,2.14,2.14,0,0,1,4.27.18A2.1,2.1,0,0,1,223.42,124.39Z"/><path class="cls-1" d="M260.24,261.83a2.12,2.12,0,0,1,2.17,2.16,2.11,2.11,0,0,1-4.22.05C258.16,262.69,259,262.06,260.24,261.83Z"/><path class="cls-1" d="M176.24,230.36a2.11,2.11,0,0,1,2.18,2.11,2,2,0,0,1-2.09,2.15,1.94,1.94,0,0,1-2.15-2.07A2,2,0,0,1,176.24,230.36Z"/><path class="cls-1" d="M168,232.31c-.21,1.47-.91,2.3-2.21,2.3a1.9,1.9,0,0,1-2.09-2.11,2,2,0,0,1,2.12-2.11C167.18,230.37,167.68,231.33,168,232.31Z"/><path class="cls-1" d="M123.81,234.64c-1.28-.09-2.15-.7-2.18-2a2,2,0,0,1,2.05-2.19,2,2,0,0,1,2.2,2C126,233.77,125.1,234.44,123.81,234.64Z"/><path class="cls-1" d="M278.25,206.2a2.1,2.1,0,0,1-2.1,2.19,2,2,0,0,1-2.18-2.06,1.93,1.93,0,0,1,2-2.19C277.33,204.09,278,204.92,278.25,206.2Z"/><path class="cls-1" d="M286.64,225a2.13,2.13,0,0,1,2,2.25,1.89,1.89,0,0,1-2.13,2.07,1.94,1.94,0,0,1-2.09-2.14C284.47,225.88,285.34,225.23,286.64,225Z"/><path class="cls-1" d="M276.05,229.38a2.05,2.05,0,0,1-2.1-2.16,2,2,0,0,1,2.13-2.12,2,2,0,0,1,2.13,2.15A2,2,0,0,1,276.05,229.38Z"/><path class="cls-1" d="M115.36,211.84a1.91,1.91,0,0,1-2.17,1.79,2,2,0,0,1-2-2.2,2,2,0,0,1,2.21-2C114.7,209.44,115.37,210.23,115.36,211.84Z"/><path class="cls-1" d="M149.91,271.42a2,2,0,0,1-2-2.18,2,2,0,0,1,2.16-2.08,1.94,1.94,0,0,1,2.06,2.16A2.05,2.05,0,0,1,149.91,271.42Z"/><path class="cls-1" d="M244.86,271.4c-1.51,0-2.37-.71-2.43-2a2.14,2.14,0,0,1,4.27-.22A2,2,0,0,1,244.86,271.4Z"/><path class="cls-1" d="M155.29,135.81c1.32.19,2.15.87,2.09,2.22a2.14,2.14,0,1,1-4.27-.12A2.1,2.1,0,0,1,155.29,135.81Z"/><path class="cls-1" d="M155.23,209.38c1.35.13,2.17.81,2.15,2.15a2,2,0,0,1-2.14,2.1,2,2,0,0,1-2.13-2.12A2,2,0,0,1,155.23,209.38Z"/><path class="cls-1" d="M207.8,272.4a2,2,0,0,1,2.11,2.22,2,2,0,0,1-2.18,2.06,2.14,2.14,0,0,1,.07-4.28Z"/><path class="cls-1" d="M191.92,141.1c1.5.12,2.26.87,2.22,2.19a2,2,0,0,1-2.19,2.06,2.13,2.13,0,0,1,0-4.25Z"/><path class="cls-1" d="M267.71,227.14c-.12,1.37-.77,2.19-2.11,2.21a1.89,1.89,0,0,1-2.12-2.07,2,2,0,0,1,2.06-2.18A2.08,2.08,0,0,1,267.71,227.14Z"/><path class="cls-1" d="M281.31,209.39a2,2,0,0,1,2.1,2.05,1.92,1.92,0,0,1-2,2.19,2,2,0,0,1-2.21-2C279.12,210.28,279.89,209.53,281.31,209.39Z"/><path class="cls-1" d="M183.68,143.29a2.07,2.07,0,0,1-2.19,2.07,2,2,0,0,1-2.09-2.17,1.94,1.94,0,0,1,2.17-2.06C182.94,141.14,183.6,141.94,183.68,143.29Z"/><path class="cls-1" d="M210,285.16a2.11,2.11,0,0,1-2.26,2,2.14,2.14,0,0,1,.18-4.27C209.25,283,209.86,283.85,210,285.16Z"/><path class="cls-1" d="M171.14,141.11a2,2,0,0,1,2,2.24,2,2,0,0,1-2.23,2,1.91,1.91,0,0,1-2-2.21A2,2,0,0,1,171.14,141.11Z"/><path class="cls-1" d="M218.28,272.36c1.3.17,2.16.83,2.15,2.17a2.13,2.13,0,1,1-4.25,0C216.16,273.14,217,272.55,218.28,272.36Z"/><path class="cls-1" d="M183.67,122a2.06,2.06,0,0,1-2,2.33,2,2,0,0,1-2.23-2,2,2,0,0,1,2-2.24A2,2,0,0,1,183.67,122Z"/><path class="cls-1" d="M160.5,124.39a2,2,0,0,1-2.07-2.11,2.11,2.11,0,1,1,4.22-.1C162.68,123.51,161.89,124.23,160.5,124.39Z"/><path class="cls-1" d="M152.18,122.22c-.18,1.31-.81,2.16-2.18,2.13a2,2,0,0,1-2.09-2.16,1.94,1.94,0,0,1,2.15-2.09C151.43,120.09,152,121,152.18,122.22Z"/><path class="cls-1" d="M239.43,272.4a2.06,2.06,0,0,1,2,2.23,2,2,0,0,1-2.2,2.05,2,2,0,0,1-2-2.22A2,2,0,0,1,239.43,272.4Z"/><path class="cls-1" d="M241.46,117.1a2,2,0,0,1-2.24,2,2.1,2.1,0,1,1,.17-4.2A2.07,2.07,0,0,1,241.46,117.1Z"/><path class="cls-1" d="M276,214.6c1.36.12,2.16.79,2.19,2.14a2.12,2.12,0,1,1-4.23,0A2,2,0,0,1,276,214.6Z"/><path class="cls-1" d="M218.25,119.1a2,2,0,0,1-2.08-2.17,2,2,0,0,1,2.15-2.09,2,2,0,0,1,2.1,2.16C220.42,118.34,219.56,119,218.25,119.1Z"/><path class="cls-1" d="M210,117c-.21,1.28-.84,2.11-2.22,2.06a2.11,2.11,0,0,1,.1-4.22A2.08,2.08,0,0,1,210,117Z"/><path class="cls-1" d="M262.45,274.39c-.07,1.46-.84,2.27-2.11,2.29a2,2,0,0,1-2.16-2.09,2,2,0,0,1,2.08-2.16A2,2,0,0,1,262.45,274.39Z"/><path class="cls-1" d="M262.44,138a2.09,2.09,0,0,1-2.13,2.13,2.13,2.13,0,0,1,0-4.26C261.59,135.82,262.31,136.65,262.44,138Z"/><path class="cls-1" d="M251.92,137.63c0,1.62-.77,2.41-2,2.48a2,2,0,0,1-2.21-2,1.94,1.94,0,0,1,2-2.19A1.92,1.92,0,0,1,251.92,137.63Z"/><path class="cls-1" d="M257.19,227.35a2,2,0,0,1-2.16,2,2,2,0,0,1-2.11-2.13,2,2,0,0,1,2.16-2.11C256.36,225.12,257.12,225.93,257.19,227.35Z"/><path class="cls-1" d="M181.6,109.59c1.28.19,2.1.84,2,2.2a1.94,1.94,0,0,1-2.16,2.07,2,2,0,0,1-2.07-2.19A2,2,0,0,1,181.6,109.59Z"/><path class="cls-1" d="M165.84,224.16a2.06,2.06,0,0,1-2.16-2.08,2,2,0,0,1,2-2.2,2,2,0,0,1,2.19,2.06A2,2,0,0,1,165.84,224.16Z"/><path class="cls-1" d="M241.44,138.09a2.07,2.07,0,0,1-2.25,2,2.12,2.12,0,0,1,.22-4.23A2,2,0,0,1,241.44,138.09Z"/><path class="cls-1" d="M204.7,290.3c-.2,1.36-.9,2.18-2.23,2.1a2.12,2.12,0,0,1,.18-4.24C204,288.19,204.54,289.14,204.7,290.3Z"/><path class="cls-1" d="M160.47,225c1.2.19,2.12.79,2.16,2.13a2.12,2.12,0,0,1-4.23.16C158.33,226,159.2,225.32,160.47,225Z"/><path class="cls-1" d="M220.44,137.69c0,1.59-.83,2.34-2.09,2.4a2.12,2.12,0,0,1-.13-4.23A2.07,2.07,0,0,1,220.44,137.69Z"/><path class="cls-1" d="M291.81,219.85a2,2,0,0,1,2.11,2.09,2,2,0,0,1-2.06,2.18,2,2,0,0,1-2.19-2.07C289.62,220.74,290.43,220,291.81,219.85Z"/><path class="cls-1" d="M192.13,277.64a2,2,0,0,1,2,2.22,2,2,0,0,1-2.19,2.06,2,2,0,0,1-2.05-2.22A2,2,0,0,1,192.13,277.64Z"/><path class="cls-1" d="M215.16,279.9a2,2,0,0,1-2.19,2,2.13,2.13,0,1,1,.14-4.25C214.47,277.67,215.09,278.55,215.16,279.9Z"/><path class="cls-1" d="M137.38,227.24c.16-1.38.94-2.18,2.21-2.14a2,2,0,0,1,2,2.21,2,2,0,0,1-2.18,2C138.07,229.33,137.5,228.45,137.38,227.24Z"/><path class="cls-1" d="M129,229.39a2,2,0,0,1-2.07-2.11,2.1,2.1,0,1,1,4.19-.08A2,2,0,0,1,129,229.39Z"/><path class="cls-1" d="M239.35,156.76a2.16,2.16,0,0,1,2.08,2.27,2.12,2.12,0,1,1-4.23-.13C237.19,157.53,238.13,157,239.35,156.76Z"/><path class="cls-1" d="M173.18,227.19a2,2,0,0,1-2.08,2.16,1.93,1.93,0,0,1-2.17-2,2,2,0,0,1,2-2.22C172.28,225,173,225.88,173.18,227.19Z"/><path class="cls-1" d="M249.69,224.14a2,2,0,0,1-2-2.2,2.11,2.11,0,1,1,4.21.11C251.89,223.41,251,224,249.69,224.14Z"/><path class="cls-1" d="M220.45,106.35a2.11,2.11,0,0,1-2.18,2.23,2,2,0,0,1-2.1-2.13,1.92,1.92,0,0,1,2.14-2.07A2,2,0,0,1,220.45,106.35Z"/><path class="cls-1" d="M171,113.89a2.08,2.08,0,0,1-2.08-2.18,2.09,2.09,0,0,1,4.18,0A2.07,2.07,0,0,1,171,113.89Z"/><path class="cls-1" d="M197.36,114.78a2.1,2.1,0,0,1,2,2.18,2.1,2.1,0,1,1-4.2,0C195.21,115.66,196,115,197.36,114.78Z"/><path class="cls-1" d="M286.57,204.09c1.3.18,2.13.82,2.1,2.18a2.12,2.12,0,1,1-4.23,0C284.43,204.86,285.35,204.28,286.57,204.09Z"/><path class="cls-1" d="M267.72,206.27c-.16,1.29-.85,2.13-2.15,2.11a2,2,0,0,1-2.08-2.14,1.9,1.9,0,0,1,2.1-2.08A2,2,0,0,1,267.72,206.27Z"/><path class="cls-1" d="M136.41,232.44a2,2,0,0,1-2.07,2.17,2.1,2.1,0,0,1-.14-4.2C135.55,230.36,136.21,231.18,136.41,232.44Z"/><path class="cls-1" d="M173.16,122.09a2,2,0,0,1-2.06,2.26,2,2,0,0,1-2.16-2.08,1.9,1.9,0,0,1,2-2.16A2,2,0,0,1,173.16,122.09Z"/><path class="cls-1" d="M157.43,232.43c-.16,1.34-.81,2.2-2.15,2.19a2,2,0,0,1-2.15-2.1,2,2,0,0,1,2.11-2.14A2.09,2.09,0,0,1,157.43,232.43Z"/><path class="cls-1" d="M255.06,208.44c-1.32-.25-2.21-1-2.17-2.25a2.15,2.15,0,0,1,4.3.14A2.11,2.11,0,0,1,255.06,208.44Z"/><path class="cls-1" d="M204.69,122.25c-.16,1.38-.93,2.15-2.22,2.09a2,2,0,0,1-2-2.21,1.92,1.92,0,0,1,2.18-2A2,2,0,0,1,204.69,122.25Z"/><path class="cls-1" d="M239.21,230.37a2,2,0,0,1,2.19,2.1,1.93,1.93,0,0,1-2.11,2.13,1.88,1.88,0,0,1-2.06-1.95A2,2,0,0,1,239.21,230.37Z"/><path class="cls-1" d="M146.89,127.35a2,2,0,0,1-2,2.21,1.93,1.93,0,0,1-2.18-2,2.12,2.12,0,0,1,4.23-.17Z"/><path class="cls-1" d="M230.94,127.47c-.19,1.27-.78,2.16-2.17,2.1a1.94,1.94,0,0,1-2.09-2.13,2,2,0,0,1,2.15-2.13C230.17,125.3,230.77,126.23,230.94,127.47Z"/><path class="cls-1" d="M225.67,132.61a2,2,0,0,1-2.09,2.21,2.1,2.1,0,1,1-.09-4.2C224.85,130.57,225.47,131.43,225.67,132.61Z"/><path class="cls-1" d="M236.23,132.84a2.13,2.13,0,0,1-2.3,2,2.11,2.11,0,0,1,.25-4.22C235.51,130.67,236.07,131.61,236.23,132.84Z"/><path class="cls-1" d="M281.34,198.84c1.26.18,2.09.81,2.07,2.18a2,2,0,0,1-2.13,2.1,2,2,0,0,1-2.11-2.14A2.11,2.11,0,0,1,281.34,198.84Z"/><path class="cls-1" d="M146.89,137.75a2.07,2.07,0,0,1-2,2.36,2.13,2.13,0,0,1-.22-4.25A2,2,0,0,1,146.89,137.75Z"/><path class="cls-1" d="M188.94,137.91c-.12,1.46-.91,2.23-2.2,2.19a2,2,0,0,1-2.11-2.18,2,2,0,0,1,2.2-2.07A2,2,0,0,1,188.94,137.91Z"/><path class="cls-1" d="M141.68,237.71c-.2,1.33-.85,2.17-2.18,2.17a2.12,2.12,0,0,1,0-4.23A2.12,2.12,0,0,1,141.68,237.71Z"/><path class="cls-1" d="M251.91,201.4a2,2,0,0,1-2.28,1.71,2.13,2.13,0,1,1,.35-4.24C251.24,199,252,199.76,251.91,201.4Z"/><path class="cls-1" d="M202.52,277.63a2.06,2.06,0,0,1,2.15,2.17,2,2,0,0,1-2.13,2.1,1.91,1.91,0,0,1-2.09-2.12A2.06,2.06,0,0,1,202.52,277.63Z"/><path class="cls-1" d="M199.43,138a2,2,0,0,1-2.07,2.15,2,2,0,0,1-2.18-2.07,1.93,1.93,0,0,1,2-2.18A2,2,0,0,1,199.43,138Z"/><path class="cls-1" d="M181.58,235.61c1.25.24,2.1.86,2,2.23a1.92,1.92,0,0,1-2.16,2,2,2,0,0,1-2.06-2.19C179.43,236.34,180.33,235.75,181.58,235.61Z"/><path class="cls-1" d="M234.15,239.92a2.09,2.09,0,0,1-2.21-2,2.12,2.12,0,1,1,4.23-.2C236.25,239,235.43,239.7,234.15,239.92Z"/><path class="cls-1" d="M157.43,200.75c-.09,1.45-.78,2.25-2.08,2.34a2.1,2.1,0,1,1-.2-4.19A2.12,2.12,0,0,1,157.43,200.75Z"/><path class="cls-1" d="M252.84,237.83a2.15,2.15,0,0,1,2.12-2.18,1.94,1.94,0,0,1,2.2,2,2,2,0,0,1-2,2.21C253.81,240,253.1,239.1,252.84,237.83Z"/><path class="cls-1" d="M265.62,235.6c1.26.24,2.11.91,2.05,2.25a2,2,0,0,1-2.18,2,1.91,1.91,0,0,1-2-2.18C263.52,236.37,264.38,235.75,265.62,235.6Z"/><path class="cls-1" d="M230.93,138.19a2,2,0,0,1-2.26,1.91,2,2,0,0,1-2-2.26,1.93,1.93,0,0,1,2.24-2C230.25,136,230.86,136.83,230.93,138.19Z"/><path class="cls-1" d="M125.91,201.08a2.06,2.06,0,0,1-2.22,2,2.11,2.11,0,1,1,.13-4.21A2.05,2.05,0,0,1,125.91,201.08Z"/><path class="cls-1" d="M171.09,277.66a2,2,0,0,1,2,2.16,2,2,0,0,1-2.11,2.12,1.93,1.93,0,0,1-2.08-2.14A2,2,0,0,1,171.09,277.66Z"/><path class="cls-1" d="M157.43,243a2.12,2.12,0,0,1-2.18,2.11A2,2,0,0,1,153.1,243a2,2,0,0,1,2.16-2.09C156.63,240.93,157.28,241.72,157.43,243Z"/><path class="cls-1" d="M218.35,240.91c1.43.19,2.14.94,2,2.28a2.11,2.11,0,1,1-4.2-.33A2,2,0,0,1,218.35,240.91Z"/><path class="cls-1" d="M241.44,243c-.13,1.38-.86,2.16-2.17,2.14a2,2,0,0,1-2.08-2.14,1.92,1.92,0,0,1,2.13-2.07A2,2,0,0,1,241.44,243Z"/><path class="cls-1" d="M251.94,242.85a2.06,2.06,0,0,1-2,2.3,2.11,2.11,0,1,1-.19-4.22A2,2,0,0,1,251.94,242.85Z"/><path class="cls-1" d="M128.88,145.4a2,2,0,0,1-2-2.25,1.89,1.89,0,0,1,2.17-2,2,2,0,0,1,2,2.19C131.06,144.67,130.2,145.29,128.88,145.4Z"/><path class="cls-1" d="M141.67,143.3a2,2,0,0,1-2.19,2,2,2,0,0,1-2.06-2.15,1.88,1.88,0,0,1,2.14-2A2,2,0,0,1,141.67,143.3Z"/><path class="cls-1" d="M160.65,145.36a2,2,0,0,1-2.24-2,1.91,1.91,0,0,1,2-2.19,1.94,1.94,0,0,1,2.21,2A2,2,0,0,1,160.65,145.36Z"/><path class="cls-1" d="M255.08,197.86c-1.59-.16-2.27-1.05-2.18-2.3a2.14,2.14,0,0,1,4.26.34A2,2,0,0,1,255.08,197.86Z"/><path class="cls-1" d="M204.68,143.22a2,2,0,0,1-2.08,2.11,2.11,2.11,0,0,1-.1-4.21C203.81,141.07,204.54,141.87,204.68,143.22Z"/><path class="cls-1" d="M155.3,272.4c1.29.14,2.11.81,2.08,2.16a2.13,2.13,0,1,1-4.26-.05A2.07,2.07,0,0,1,155.3,272.4Z"/><path class="cls-1" d="M129.06,193.56a2.09,2.09,0,0,1,2.05,2.2,2.1,2.1,0,0,1-4.2-.07A2.06,2.06,0,0,1,129.06,193.56Z"/><path class="cls-1" d="M255.17,267.12a2.08,2.08,0,0,1,2,2.22,2,2,0,0,1-2.19,2.05,2,2,0,0,1-2.09-2.18C252.94,267.94,253.83,267.24,255.17,267.12Z"/><path class="cls-1" d="M234,141.12c1.46.13,2.26.91,2.19,2.18a2.12,2.12,0,1,1-2.19-2.18Z"/><path class="cls-1" d="M223.58,267.11a2.09,2.09,0,0,1,2.07,2.22,1.93,1.93,0,0,1-2.17,2.05,2,2,0,0,1-2.09-2.16C221.42,267.9,222.33,267.28,223.58,267.11Z"/><path class="cls-1" d="M213.07,271.41a2,2,0,0,1-2.17-2.11,2,2,0,0,1,2.1-2.15,1.94,1.94,0,0,1,2.14,2.09C215.17,270.62,214.35,271.25,213.07,271.41Z"/><path class="cls-1" d="M136.4,190.53c-.18,1.27-.8,2.13-2.17,2.08a1.94,1.94,0,0,1-2-2.15,1.9,1.9,0,0,1,2.12-2.06C135.68,188.42,136.24,189.29,136.4,190.53Z"/><path class="cls-1" d="M204.69,269.33a2,2,0,0,1-2.2,2,2.1,2.1,0,0,1,.11-4.2A2,2,0,0,1,204.69,269.33Z"/><path class="cls-1" d="M194.18,269.24c-.16,1.37-.87,2.16-2.19,2.13a2.1,2.1,0,1,1,.07-4.2A2,2,0,0,1,194.18,269.24Z"/><path class="cls-1" d="M173.14,269.39a2,2,0,0,1-2.25,2,1.89,1.89,0,0,1-2-2.06,2,2,0,0,1,2.11-2.15C172.37,267.17,173.08,268,173.14,269.39Z"/><path class="cls-1" d="M244.53,145.39c-1.27-.15-2.13-.82-2.11-2.15a2,2,0,0,1,2.14-2.1,2,2,0,0,1,2.12,2.11A2.07,2.07,0,0,1,244.53,145.39Z"/><path class="cls-1" d="M146.9,148.39a2.08,2.08,0,0,1-2.05,2.27,2,2,0,0,1-2.19-2.09,1.93,1.93,0,0,1,2-2.19A2,2,0,0,1,146.9,148.39Z"/><path class="cls-1" d="M176.15,146.34c1.57.14,2.32.94,2.27,2.23a2,2,0,0,1-2.2,2.07,2,2,0,0,1-2.06-2.23A2,2,0,0,1,176.15,146.34Z"/><path class="cls-1" d="M115.39,180a2,2,0,0,1-2.13,2.14,2.11,2.11,0,1,1,2.13-2.14Z"/><path class="cls-1" d="M202.57,250.45a2,2,0,0,1-2.1-2.1,1.9,1.9,0,0,1,2-2.16,2,2,0,0,1,2.16,2.05C204.72,249.6,203.85,250.23,202.57,250.45Z"/><path class="cls-1" d="M286.75,176.92c-1.54-.18-2.35-.92-2.32-2.22a1.94,1.94,0,0,1,2.19-2,1.91,1.91,0,0,1,2.05,2.14A2.07,2.07,0,0,1,286.75,176.92Z"/><path class="cls-1" d="M230.93,264c-.14,1.38-.83,2.16-2.17,2.12a1.91,1.91,0,0,1-2-2.15,2,2,0,0,1,2.13-2.1A2.09,2.09,0,0,1,230.93,264Z"/><path class="cls-1" d="M186.87,150.7c-1.38-.2-2.26-.94-2.24-2.22a2.15,2.15,0,0,1,4.29,0C188.94,149.87,188,150.45,186.87,150.7Z"/><path class="cls-1" d="M244.61,176.9c-1.39-.21-2.23-.89-2.17-2.22a2.13,2.13,0,0,1,4.25.14A2.07,2.07,0,0,1,244.61,176.9Z"/><path class="cls-1" d="M220.44,148.49a2.1,2.1,0,0,1-2.14,2.14,2,2,0,0,1-2.14-2.12,2,2,0,0,1,2.1-2.14C219.59,146.34,220.3,147.15,220.44,148.49Z"/><path class="cls-1" d="M228.84,150.67a2.14,2.14,0,0,1-2.16-2.09,2.12,2.12,0,0,1,4.23-.19C231,149.72,230.15,150.42,228.84,150.67Z"/><path class="cls-1" d="M144.53,266.1a1.94,1.94,0,0,1-1.84-2.33A2,2,0,0,1,145,261.9a2.11,2.11,0,0,1-.49,4.2Z"/><path class="cls-1" d="M283.44,148.44a2.08,2.08,0,0,1-2.12,2.2,2,2,0,0,1-2.13-2.13,1.91,1.91,0,0,1,2.08-2.13A2,2,0,0,1,283.44,148.44Z"/><path class="cls-1" d="M194.19,258.71a2.06,2.06,0,0,1-2.1,2.17,2.11,2.11,0,1,1-.14-4.21C193.31,256.59,194,257.42,194.19,258.71Z"/><path class="cls-1" d="M171.09,260.87a2,2,0,0,1-2.15-2.12,2.1,2.1,0,0,1,4.19,0A2,2,0,0,1,171.09,260.87Z"/><path class="cls-1" d="M165.7,251.33c1.43.2,2.23.95,2.2,2.23a2.11,2.11,0,0,1-4.22-.09A2.13,2.13,0,0,1,165.7,251.33Z"/><path class="cls-1" d="M241.43,169.63a2,2,0,0,1-2.2,2,2,2,0,0,1-2-2.19,1.94,1.94,0,0,1,2.17-2A2.07,2.07,0,0,1,241.43,169.63Z"/><path class="cls-1" d="M155.3,167.3a2.12,2.12,0,0,1,2.08,2.16,1.94,1.94,0,0,1-2.1,2.13,2,2,0,0,1-2.17-2.08C153.07,168.19,154,167.52,155.3,167.3Z"/><path class="cls-1" d="M265.37,256.61c1.36.09,2.24.69,2.3,2a1.92,1.92,0,0,1-2,2.21,1.88,1.88,0,0,1-2.2-2A2,2,0,0,1,265.37,256.61Z"/><path class="cls-1" d="M134.22,171.64c-1.25-.19-2.08-.84-2-2.21a1.92,1.92,0,0,1,2-2.07,2,2,0,0,1,2.21,2.08C136.41,170.76,135.57,171.47,134.22,171.64Z"/><path class="cls-1" d="M173.17,153.46c-.06,1.55-.77,2.36-2.08,2.4a1.91,1.91,0,0,1-2.15-2.07,1.94,1.94,0,0,1,2-2.2A2,2,0,0,1,173.17,153.46Z"/><path class="cls-1" d="M257.18,164.36a2.15,2.15,0,1,1-2.05-2.25A2,2,0,0,1,257.18,164.36Z"/><path class="cls-1" d="M283.45,159a2,2,0,0,1-2.15,2.05,2,2,0,0,1-2.14-2.12,2,2,0,0,1,2.15-2.14A2.08,2.08,0,0,1,283.45,159Z"/><path class="cls-1" d="M134.23,156.77a2.12,2.12,0,0,1,2.14,2.2,1.91,1.91,0,0,1-2.09,2.12,2,2,0,0,1-2.11-2.13A2.1,2.1,0,0,1,134.23,156.77Z"/><path class="cls-1" d="M183.66,258.37c0,1.75-.78,2.48-2.1,2.5a2,2,0,0,1-2.16-2.08,2.15,2.15,0,0,1,4.26-.42Z"/><path class="cls-1" d="M152.18,258.88a2,2,0,0,1-2.23,2,2.12,2.12,0,1,1,.16-4.23C151.49,256.68,152,257.6,152.18,258.88Z"/><path class="cls-1" d="M178.5,158.81c-.14,1.34-.78,2.2-2.11,2.27a1.94,1.94,0,0,1-2.22-2,2,2,0,0,1,2-2.25A2.2,2.2,0,0,1,178.5,158.81Z"/><path class="cls-1" d="M270.88,224.14c-1.34-.13-2.17-.77-2.14-2.13a1.94,1.94,0,0,1,2.09-2.12,1.91,1.91,0,0,1,2.09,2.11A2,2,0,0,1,270.88,224.14Z"/><path class="cls-1" d="M155.23,156.77c1.33.24,2.21.91,2.17,2.25a2,2,0,0,1-2.19,2.07,2,2,0,0,1-2.09-2.16A2.16,2.16,0,0,1,155.23,156.77Z"/><path class="cls-1" d="M210,106.38a2.05,2.05,0,0,1-2.13,2.18,2,2,0,0,1-2.15-2.08,1.9,1.9,0,0,1,2.08-2.1A2.07,2.07,0,0,1,210,106.38Z"/><path class="cls-1" d="M260.19,161.11a2,2,0,0,1-2-2.16,2,2,0,0,1,2.14-2.11,2,2,0,0,1,2.11,2.17C262.42,160.31,261.61,161,260.19,161.11Z"/><path class="cls-1" d="M125.94,159c-.18,1.36-.88,2.15-2.23,2.12a2,2,0,0,1-2.09-2.15,2,2,0,0,1,2.17-2.1A2.15,2.15,0,0,1,125.94,159Z"/><path class="cls-1" d="M204.68,153.7c-.13,1.3-.75,2.15-2.11,2.15a2.12,2.12,0,0,1,0-4.24C203.89,151.59,204.54,152.42,204.68,153.7Z"/><path class="cls-1" d="M288.66,164.36a2,2,0,0,1-2.36,2,2.11,2.11,0,1,1,2.36-2Z"/><path class="cls-1" d="M144.79,219.85a2,2,0,0,1,2.06,2.14,1.91,1.91,0,0,1-2.06,2.14,2,2,0,0,1-2.13-2.11C142.63,220.67,143.44,220,144.79,219.85Z"/><path class="cls-1" d="M202.65,113.9c-1.3-.16-2.16-.74-2.18-2.1a2.08,2.08,0,1,1,4.16-.14A2.08,2.08,0,0,1,202.65,113.9Z"/><path class="cls-1" d="M178.48,117c-.22,1.24-.83,2.13-2.18,2.11a2.11,2.11,0,1,1,0-4.22C177.62,114.85,178.27,115.72,178.48,117Z"/><path class="cls-1" d="M144.65,251.32c1.27.16,2.18.7,2.21,2.09a1.94,1.94,0,0,1-2,2.2,1.92,1.92,0,0,1-2.19-2C142.59,252.26,143.42,251.58,144.65,251.32Z"/><path class="cls-1" d="M160.49,151.57c1.38.16,2.18.89,2.15,2.2a2,2,0,0,1-2.16,2.08,1.91,1.91,0,0,1-2-2.16A2,2,0,0,1,160.49,151.57Z"/><path class="cls-1" d="M131.15,174.64c-.19,1.53-1,2.28-2.28,2.21a2,2,0,0,1-1.93-2.31,1.85,1.85,0,0,1,2.11-1.87A2,2,0,0,1,131.15,174.64Z"/><path class="cls-1" d="M278.24,258.74a2,2,0,0,1-2.14,2.14,2.11,2.11,0,1,1,0-4.21A2,2,0,0,1,278.24,258.74Z"/><path class="cls-1" d="M139.57,172.64a2,2,0,0,1,2.07,2.15,1.94,1.94,0,0,1-2.2,2.05,1.91,1.91,0,0,1-2-2C137.4,173.45,138.15,172.73,139.57,172.64Z"/><path class="cls-1" d="M131.15,206.39a2,2,0,0,1-2.21,2,2,2,0,0,1-2-2.22,1.93,1.93,0,0,1,2.17-2A2.06,2.06,0,0,1,131.15,206.39Z"/><path class="cls-1" d="M167.93,264a2.05,2.05,0,0,1-2.2,2.09,1.9,1.9,0,0,1-2.06-2.13,2,2,0,0,1,2.15-2.07A2.1,2.1,0,0,1,167.93,264Z"/><path class="cls-1" d="M150.21,172.66a2.1,2.1,0,1,1-.36,4.18,1.93,1.93,0,0,1-1.94-2.26A2,2,0,0,1,150.21,172.66Z"/><path class="cls-1" d="M257.18,248.28a2.14,2.14,0,1,1-4.28,0,2.14,2.14,0,0,1,4.28,0Z"/><path class="cls-1" d="M262.46,232.49c-.19,1.41-.93,2.17-2.24,2.11a1.94,1.94,0,0,1-2-2.18,2,2,0,0,1,2.2-2C261.77,230.42,262.28,231.38,262.46,232.49Z"/><path class="cls-1" d="M207.7,266.13a2,2,0,0,1-2-2.17,1.94,1.94,0,0,1,2.16-2.06,2,2,0,0,1,2.07,2.17A2,2,0,0,1,207.7,266.13Z"/><path class="cls-1" d="M191.91,134.88a2.09,2.09,0,0,1-2-2.26,2.12,2.12,0,0,1,4.24.2C194.1,134.14,193.23,134.79,191.91,134.88Z"/><path class="cls-1" d="M276.16,172.65a2,2,0,0,1,2,2.14,1.93,1.93,0,0,1-2.17,2.05A2,2,0,0,1,274,174.7C274,173.37,274.77,172.68,276.16,172.65Z"/><path class="cls-1" d="M270.82,177.88c1.31.19,2.18.8,2.09,2.21a2,2,0,0,1-2.22,2,1.91,1.91,0,0,1-1.94-2.09A2,2,0,0,1,270.82,177.88Z"/><path class="cls-1" d="M173.18,248.27c-.15,1.4-.9,2.17-2.21,2.14a2.12,2.12,0,0,1,.12-4.23A2,2,0,0,1,173.18,248.27Z"/><path class="cls-1" d="M257.21,143.3a2.06,2.06,0,0,1-2.1,2,2,2,0,0,1-2.22-2.05,2,2,0,0,1,2.1-2.15C256.34,141.1,257.05,141.85,257.21,143.3Z"/><path class="cls-1" d="M268.72,264.12a2,2,0,0,1,2.07-2.24,2,2,0,0,1,2.13,2.09,1.93,1.93,0,0,1-2.07,2.12A1.88,1.88,0,0,1,268.72,264.12Z"/><path class="cls-1" d="M162.66,248.29a2,2,0,0,1-2.11,2.12,2,2,0,0,1-2.12-2.11,1.88,1.88,0,0,1,2.07-2.11C161.85,246.18,162.52,247,162.66,248.29Z"/><path class="cls-1" d="M158.41,269.38a2,2,0,0,1,2.08-2.22,1.92,1.92,0,0,1,2.14,2.06,2,2,0,0,1-2.08,2.15A2,2,0,0,1,158.41,269.38Z"/><path class="cls-1" d="M128.76,187.33a1.9,1.9,0,0,1-1.83-2.17,1.93,1.93,0,0,1,2.16-2,2,2,0,0,1,2,2.2C131.08,186.61,130.3,187.34,128.76,187.33Z"/><path class="cls-1" d="M183.66,269.4a2,2,0,0,1-2.18,2,2.11,2.11,0,1,1,2.18-2Z"/><path class="cls-1" d="M299.22,185.37a2,2,0,0,1-2.25,2,2.11,2.11,0,0,1,.22-4.22C298.53,183.18,299.13,184.07,299.22,185.37Z"/><path class="cls-1" d="M291.76,203.11a2,2,0,0,1-2.07-2.14,2,2,0,0,1,2.16-2.08,2,2,0,0,1,2.07,2.14A2,2,0,0,1,291.76,203.11Z"/><path class="cls-1" d="M132.16,137.86a2.11,2.11,0,0,1,4.21.15,2,2,0,0,1-2.14,2.09A2,2,0,0,1,132.16,137.86Z"/><path class="cls-1" d="M146.89,190.28c0,1.48-.72,2.27-2,2.32a1.91,1.91,0,0,1-2.18-2,2.12,2.12,0,0,1,4.23-.3Z"/><path class="cls-1" d="M236.25,269.34c-.29,1.22-.92,2.09-2.27,2a1.94,1.94,0,0,1-2-2.17,2,2,0,0,1,2.19-2C235.44,267.19,236.06,268.1,236.25,269.34Z"/><path class="cls-1" d="M210,243a2.05,2.05,0,0,1-2.18,2.11,2.09,2.09,0,1,1,0-4.18A2.07,2.07,0,0,1,210,243Z"/><path class="cls-1" d="M199.44,106.37c-.14,1.38-.85,2.21-2.17,2.2a1.94,1.94,0,0,1-2.07-2,1.91,1.91,0,0,1,2-2.21C198.62,104.32,199.21,105.18,199.44,106.37Z"/><path class="cls-1" d="M265.55,271.4a2,2,0,0,1-2.06-2.24,1.88,1.88,0,0,1,2-2,1.94,1.94,0,0,1,2.16,2.09A2,2,0,0,1,265.55,271.4Z"/><path class="cls-1" d="M131.14,237.6c-.11,1.44-.81,2.27-2.14,2.27a2.11,2.11,0,0,1-.08-4.22A2,2,0,0,1,131.14,237.6Z"/><path class="cls-1" d="M223.33,145.36a2.06,2.06,0,0,1-1.94-2.23,2,2,0,0,1,2.24-2,1.94,1.94,0,0,1,2,2.2C225.59,144.63,224.78,145.34,223.33,145.36Z"/><path class="cls-1" d="M176.32,276.73a2.11,2.11,0,0,1-2.15-2.13,1.93,1.93,0,0,1,2.06-2.17,2,2,0,0,1,2.21,2.06A2.13,2.13,0,0,1,176.32,276.73Z"/><path class="cls-1" d="M212.9,145.37a2,2,0,0,1-2-2.19,2,2,0,0,1,2.2-2.05,1.9,1.9,0,0,1,2,2.16C215.1,144.64,214.3,145.29,212.9,145.37Z"/><path class="cls-1" d="M197.15,272.39c1.42.12,2.23.78,2.24,2.12a2,2,0,0,1-2,2.17,2,2,0,0,1-2.14-2.1A2,2,0,0,1,197.15,272.39Z"/><path class="cls-1" d="M168,243c-.19,1.32-.83,2.17-2.17,2.17a2.09,2.09,0,1,1,0-4.18C167.13,240.92,167.71,241.8,168,243Z"/><path class="cls-1" d="M170.9,239.92A2,2,0,0,1,169,237.7a1.91,1.91,0,0,1,2.14-2,2,2,0,0,1,2,2.2A2,2,0,0,1,170.9,239.92Z"/><path class="cls-1" d="M230.92,274.54a2,2,0,0,1-2.1,2.14,2,2,0,0,1-2.14-2.13,1.94,1.94,0,0,1,2.08-2.14C230.08,272.4,230.78,273.21,230.92,274.54Z"/><path class="cls-1" d="M123.71,240.93c1.44.11,2.21.83,2.16,2.16a2,2,0,0,1-2.17,2,2,2,0,0,1-2.09-2.17A2,2,0,0,1,123.71,240.93Z"/><path class="cls-1" d="M299.2,195.71c-.15,1.33-.78,2.16-2.15,2.12A1.92,1.92,0,0,1,295,195.7a2,2,0,0,1,2.13-2.11A2,2,0,0,1,299.2,195.71Z"/><path class="cls-1" d="M115.37,201a2.12,2.12,0,1,1-2.12-2.1A2,2,0,0,1,115.37,201Z"/><path class="cls-1" d="M162.66,279.83c-.18,1.3-.85,2.12-2.2,2.07a2,2,0,0,1-2-2.19,1.91,1.91,0,0,1,2.15-2C162,277.71,162.54,278.57,162.66,279.83Z"/><path class="cls-1" d="M270.71,135.8c1.33.17,2.21.8,2.22,2.12a2.1,2.1,0,1,1-4.2.1C268.69,136.63,269.56,136.07,270.71,135.8Z"/><path class="cls-1" d="M134.32,198.84a2.08,2.08,0,0,1,2,2.25,1.93,1.93,0,0,1-2.2,2,1.89,1.89,0,0,1-2-2.18C132.24,199.54,133.11,199,134.32,198.84Z"/><path class="cls-1" d="M162.67,237.7a2.09,2.09,0,0,1-2.06,2.18,2.12,2.12,0,0,1-.18-4.23A2,2,0,0,1,162.67,237.7Z"/><path class="cls-1" d="M129,246.16a2.12,2.12,0,1,1-.16,4.23,1.9,1.9,0,0,1-1.93-2.09A2,2,0,0,1,129,246.16Z"/><path class="cls-1" d="M273,232.66a2,2,0,0,1-2.24,1.94,1.89,1.89,0,0,1-2-2.2,2,2,0,0,1,2.22-2C272.3,230.46,272.89,231.34,273,232.66Z"/><path class="cls-1" d="M265.75,172.67a1.88,1.88,0,0,1,1.92,2.1,2.09,2.09,0,0,1-4.18.06C263.46,173.5,264.14,172.71,265.75,172.67Z"/><path class="cls-1" d="M199.42,148.43c-.12,1.33-.8,2.2-2.1,2.21a2,2,0,0,1-2.12-2.12,2,2,0,0,1,2.07-2.15A2,2,0,0,1,199.42,148.43Z"/><path class="cls-1" d="M270.84,150.68a2.1,2.1,0,0,1-2.11-2.11,2.1,2.1,0,1,1,4.2-.14C273,149.74,272.2,150.48,270.84,150.68Z"/><path class="cls-1" d="M162.68,206.29a2.07,2.07,0,0,1-2.19,2.11,2.13,2.13,0,0,1,.08-4.25A2.05,2.05,0,0,1,162.68,206.29Z"/><path class="cls-1" d="M299.19,206.19a2.05,2.05,0,0,1-2,2.22,2,2,0,0,1-2.19-2.08,1.93,1.93,0,0,1,2-2.19C298.31,204.08,299,204.89,299.19,206.19Z"/><path class="cls-1" d="M239.43,282.9a2,2,0,0,1,2,2.18,2,2,0,0,1-2.15,2.1A2,2,0,0,1,237.2,285,2.05,2.05,0,0,1,239.43,282.9Z"/><path class="cls-1" d="M270.94,171.64c-1.25-.14-2.16-.67-2.22-2a2.1,2.1,0,1,1,4.19-.21C273,170.74,272.17,171.38,270.94,171.64Z"/><path class="cls-1" d="M141.69,258.81a2.08,2.08,0,0,1-2.24,2,1.9,1.9,0,0,1-2-2.15,1.94,1.94,0,0,1,2.17-2A2.08,2.08,0,0,1,141.69,258.81Z"/><path class="cls-1" d="M146.87,169.57a1.9,1.9,0,0,1-2.1,2,2.12,2.12,0,1,1,0-4.23A2,2,0,0,1,146.87,169.57Z"/><path class="cls-1" d="M134.43,241a1.91,1.91,0,0,1,1.92,2.28,2,2,0,0,1-2.35,1.91,1.92,1.92,0,0,1-1.8-2.21C132.26,241.55,133.08,240.94,134.43,241Z"/><path class="cls-1" d="M176.1,241a2,2,0,0,1,2.32,2,2.12,2.12,0,1,1-2.32-2Z"/><path class="cls-1" d="M262.47,201a2.05,2.05,0,0,1-2.2,2.06,2.1,2.1,0,1,1,.08-4.2A2.06,2.06,0,0,1,262.47,201Z"/><path class="cls-1" d="M262.45,243c-.15,1.33-.83,2.17-2.16,2.14a2,2,0,0,1-2.1-2.14,1.9,1.9,0,0,1,2.14-2C261.73,240.94,262.3,241.78,262.45,243Z"/><path class="cls-1" d="M146.88,232.62a2.1,2.1,0,0,1-4.2-.19,1.94,1.94,0,0,1,2.17-2A2,2,0,0,1,146.88,232.62Z"/><path class="cls-1" d="M270.73,213.66a2,2,0,0,1-2-2.19,1.91,1.91,0,0,1,2.14-2.06,1.94,1.94,0,0,1,2.08,2.14A2.07,2.07,0,0,1,270.73,213.66Z"/><path class="cls-1" d="M270.88,255.65a2,2,0,0,1-2.14-2.07,2.1,2.1,0,1,1,4.19-.15A2,2,0,0,1,270.88,255.65Z"/><path class="cls-1" d="M199.42,243.14c-.26,1.36-1,2.13-2.35,2a2,2,0,0,1-1.84-2.37,1.84,1.84,0,0,1,2.16-1.81A2,2,0,0,1,199.42,243.14Z"/><path class="cls-1" d="M205,161.62a37.6,37.6,0,0,1,37.62,37.88c-.24,20.94-17.26,37.29-38.6,37.09-20.08-.19-36.79-17.51-36.53-37.86C167.74,178.16,184.63,161.46,205,161.62Zm33,40.87c0-14.3-5.58-24.56-15.05-30.62a8.42,8.42,0,0,0-6-1.46,8.58,8.58,0,0,0-7.24,6.57c-.87,3.68.57,7,4.07,9.48,7.22,5,9.22,14.15,4.68,21.29-4.65,7.33-13.69,9.47-21.37,5.05a9,9,0,0,0-5-1.39,8.64,8.64,0,0,0-8,6.5c-1,4,.51,7.61,4.42,9.82,10.84,6.13,21.92,6.39,32.76.33C232.22,221.9,237.58,212.09,238,202.49Z"/></g></svg>