<svg id="레이어_1" data-name="레이어 1" xmlns="http://www.w3.org/2000/svg" viewBox="0 0 480.06 52.56"><defs><style>.cls-1{fill:#fff;}</style></defs><path class="cls-1" d="M397,10.12c-2.48-1.36-4.78-3.1-7.26-4.51C381.14.75,370.9.22,361.38,2c-4.63.85-8.88,2.9-13.41,3.9C342.77,7,337.57,5.5,332.39,5c-7.47-.67-16.24,0-23.13,3.13-8,3.61-9.79,13.31-1.92,18.4,4.11,2.67,9.27,3,14.17,2.9a25.26,25.26,0,0,1,6.39.28c4.66,1.08,5.26,5.31,8.13,8.44a23.27,23.27,0,0,0,11.31,6.35,47.54,47.54,0,0,0,22.89.51c7.17-1.78,11.89-8.85,18.76-9.83a44.16,44.16,0,0,1,8.75.14,34.91,34.91,0,0,0,13.64-1.58c9.44-3.36,15.61-14.65,3-19.17-4.74-1.7-10-1.42-14.73-3.22A22.88,22.88,0,0,1,397,10.12Z"/><path class="cls-1" d="M137.14,38.37c-.75-.42-1.44-.79-2-1.1-4.52-2.73-9.11-5.49-14.2-7-9.18-2.8-19-1.41-28.18.57-9.54,2.05-18.88,4.74-28.22,7.49-2.76.82-9.21,3.56-6,7,2,2.1,6.34,2.63,9,3.13,8.67,1.62,17.62,2,26.42,2.27,1.66.06,3.32.09,5,.16,12.73.51,23.24,1.67,35.28-1.49,2.76-.72,5.56-1.58,7.32-3C145.4,43.22,140.58,40.28,137.14,38.37Z"/></svg>