<svg id="레이어_1" data-name="레이어 1" xmlns="http://www.w3.org/2000/svg" viewBox="0 0 451.05 94.22"><defs><style>.cls-1{fill:none;stroke:#687180;stroke-miterlimit:10;stroke-width:3px;}.cls-2{fill:#fff;}</style></defs><path class="cls-1" d="M133.35,90.79c-3.62,0-3.62-.71-7.24-.71s-3.62.36-7.25.36-3.62.44-7.24.44-3.62-.55-7.25-.55-3.62.43-7.25.43-3.62-.15-7.24-.15-3.63.33-7.25.33H75.38c-3.62,0-3.62-.81-7.25-.81s-3.62.61-7.24.61-3.62-.61-7.25-.61-3.62.32-7.24.32-3.63.39-7.25.39-3.62-.69-7.25-.69-3.63.33-7.25.33-3.63-.13-7.25-.13-3.63,0-7.25,0-3.63-.24-7.26-.24"/><path class="cls-2" d="M347.9,43.65C320.27,1.18,280.46,2.49,280.46,2.49c-52.92-6.36-81.15,28.36-81.15,28.36-68.15-19.39-84.48,31.63-84.48,31.63C50.68,57.91,33,89.69,33,89.69l414.94,2.82s-8.39-30-48.86-28.76S347.9,43.65,347.9,43.65Z"/></svg>