<svg id="레이어_1" data-name="레이어 1" xmlns="http://www.w3.org/2000/svg" viewBox="0 0 451.05 94.22"><defs><style>.cls-1{fill:#fff;}.cls-2{fill:none;stroke:#687180;stroke-miterlimit:10;stroke-width:3px;}</style></defs><path class="cls-1" d="M447.83,87,445,87l-8.25.08-13.05.14-17.25.18-20.88.21-23.92.25-26.37.27-28.25.3-29.55.3L247.18,89l-30.38.32-29.93.31L158,90l-27.26.28q-22.15.24-44.3.48L42,91.14l-8.51.08c2.8-5.32,9.21-8.28,15.09-9.89a63,63,0,0,1,19-2,92.51,92.51,0,0,1,9.7.91,56.53,56.53,0,0,0,9.36,1c5.78-.12,10-3.43,14.05-6.84a123.5,123.5,0,0,0,11.17-10.88c8.1-8.72,14.73-18,24.82-25,19.2-13.3,44.63-18,68.2-15.77,4.66.44,9.3,1,13.95,1.51,4.45.46,8.55,1.24,12.79-.64a48.58,48.58,0,0,0,8-5.07C253.2,9,270,3.89,287.07,7,311.75,11.47,328,33.1,346,47.43c6.24,5,13.14,10.56,21.47,12.06,5.49,1,11.09.52,16.56-.37,4.75-.78,9.21-2.41,14.07-2.84,21.82-1.92,40.1,10.88,49.27,28.35l.49,1"/><path class="cls-2" d="M133.35,90.79c-3.62,0-3.62-.71-7.24-.71s-3.62.36-7.25.36-3.62.44-7.24.44-3.62-.55-7.25-.55-3.62.43-7.25.43-3.62-.15-7.24-.15-3.63.33-7.25.33H75.38c-3.62,0-3.62-.81-7.25-.81s-3.62.61-7.24.61-3.62-.61-7.25-.61-3.62.32-7.24.32-3.63.39-7.25.39-3.62-.69-7.25-.69-3.63.33-7.25.33-3.63-.13-7.25-.13-3.63,0-7.25,0-3.63-.24-7.26-.24"/></svg>