<svg id="레이어_1" data-name="레이어 1" xmlns="http://www.w3.org/2000/svg" viewBox="0 0 407.35 347.55"><defs><style>.cls-1{fill:none;stroke:#fff;stroke-miterlimit:10;stroke-width:5px;}</style></defs><path class="cls-1" d="M252.73,340.68c.27-2.37.53-4.71.93-7s.94-4.65,1.48-6.94,1.23-4.58,1.9-6.83,1-4.68,1.8-6.89,2.11-4.27,3.06-6.43,1.67-4.45,2.75-6.55,2.52-4,3.73-6.05,2.6-3.93,3.92-5.89,2.44-4.07,3.88-5.94,2.75-3.88,4.31-5.66,3.29-3.41,4.95-5.1,3.21-3.5,5-5.09,3.62-3.06,5.47-4.54,3.77-2.87,5.71-4.24,3.78-2.88,5.79-4.12,4.28-2.07,6.37-3.2,4.13-2.3,6.29-3.3,4.23-2.15,6.44-3,4.56-1.3,6.82-2,4.57-1.15,6.87-1.74,4.41-2,6.75-2.4,4.72-.52,7.08-.83,4.7-.62,7.07-.79,4.73-.11,7.11-.14,4.71.49,7.09.61,4.77-.37,7.14-.11"/><path class="cls-1" d="M150.87,326.55c.27-2.39,1.47-4.64,1.81-7s-.21-4.88.22-7.22.93-4.72,1.43-7,1.67-4.53,2.26-6.84.82-4.74,1.49-7,1.53-4.54,2.28-6.81,2-4.35,2.84-6.59.82-4.81,1.72-7,2.31-4.22,3.29-6.4,1.59-4.55,2.65-6.69,2.41-4.15,3.54-6.25,2.73-3.95,3.94-6,2.09-4.33,3.36-6.34,2.63-4,4-6,2.81-3.87,4.22-5.79,2.73-3.94,4.22-5.81,3.39-3.39,4.94-5.21,2.9-3.81,4.51-5.57,3.49-3.26,5.16-5,3.11-3.64,4.84-5.29,3.5-3.25,5.28-4.84,3.72-3,5.56-4.53,3.56-3.19,5.45-4.66,3.84-2.84,5.78-4.23,3.79-2.92,5.78-4.25,4.28-2.16,6.32-3.41,4-2.58,6.09-3.76,4.14-2.36,6.26-3.47,4.31-2,6.46-3.07,4.2-2.29,6.39-3.25,4.2-2.34,6.42-3.22,4.46-1.75,6.71-2.56,4.66-1.15,6.94-1.88,4.42-1.91,6.72-2.56,4.74-.79,7.07-1.35,4.63-1.16,7-1.65,4.76-.48,7.12-.88,4.61-1.43,7-1.75,4.79-.12,7.17-.36,4.72-1,7.11-1.12,4.8.57,7.19.5,4.77-.95,7.16-.93,4.77.42,7.17.52,4.74.56,7.13.75,4.77.19,7.15.46"/><path class="cls-1" d="M22.12,303.14c.26-2.4,1.25-4.71,1.57-7.09s.31-4.82.68-7.2.34-4.84.76-7.21,1.41-4.64,1.89-7,.56-4.81,1.08-7.16,1.23-4.67,1.81-7,.88-4.77,1.51-7.09,1.3-4.65,2-7,2.17-4.38,2.91-6.67.92-4.77,1.71-7,2.18-4.34,3-6.6,1.41-4.62,2.3-6.85,1.44-4.63,2.38-6.84,2.54-4.15,3.53-6.35S51,201.56,52,199.39s2.22-4.27,3.31-6.42,2.18-4.3,3.31-6.42,2.51-4.12,3.69-6.22,1.78-4.54,3-6.61,3.08-3.77,4.36-5.81,1.85-4.54,3.17-6.55,2.85-3.91,4.22-5.89,2.64-4.05,4.05-6,3-3.75,4.51-5.66,2.92-3.84,4.42-5.73,3.41-3.44,5-5.29,2.59-4.12,4.18-5.93,3.54-3.31,5.16-5.09,3.27-3.54,4.93-5.28,3.52-3.29,5.23-5,3.16-3.65,4.9-5.32,3.29-3.55,5.06-5.18,3.77-3,5.59-4.6,3.77-3,5.61-4.56,3.77-3,5.65-4.5,3.32-3.58,5.24-5,4.17-2.47,6.12-3.89,3.95-2.75,5.93-4.13,3.9-2.83,5.91-4.16,4-2.66,6.06-3.95,4.19-2.37,6.26-3.61,4.23-2.31,6.32-3.5,4.12-2.5,6.24-3.65,3.93-2.88,6.08-4,4.72-1.32,6.89-2.37,3.95-2.94,6.14-3.94,4.59-1.54,6.8-2.5,4.35-2.11,6.58-3,4.69-1.24,6.94-2.09,4.43-1.91,6.71-2.71,4.42-2,6.71-2.71,4.68-1.2,7-1.9,4.7-1.08,7-1.73,4.52-1.75,6.86-2.35,4.77-.77,7.12-1.31,4.76-.75,7.12-1.24,4.72-.94,7.09-1.37,4.72-.94,7.1-1.32,4.68-1.29,7.07-1.61,4.77-.74,7.16-1,4.79-.59,7.2-.8,4.81-.29,7.22-.46,4.83,0,7.24-.1,4.8-.56,7.22-.62,4.82.5,7.23.5,4.82-.19,7.23-.14,4.8.51,7.21.62,4.85-.52,7.26-.36,4.77.79,7.18,1,4.8.36,7.2.63"/></svg>